<?xml version="1.0" encoding="UTF-8"?>
<svg version="1.1" xmlns="http://www.w3.org/2000/svg" width="320" height="320">
<path d="M0 0 C1.29550781 0.01675781 2.59101563 0.03351562 3.92578125 0.05078125 C36.67652126 1.39775646 70.19716537 20.25805857 92.56835938 43.63916016 C95.88815947 47.29287288 98.97152446 51.10269951 102 55 C102.62132812 55.79535156 103.24265625 56.59070313 103.8828125 57.41015625 C122.74077955 82.97805111 132.22234193 113.3486984 132.25 144.9375 C132.25067474 145.62941437 132.25134949 146.32132874 132.25204468 147.03421021 C132.19414554 184.42244527 116.78313056 220.02980082 91 247 C90.12021484 247.97453125 90.12021484 247.97453125 89.22265625 248.96875 C66.01760634 273.74788426 29.68863072 288.72506423 -3.99121094 290.12426758 C-37.83376814 290.99430467 -69.05212837 284.1004397 -97 264 C-97.91910156 263.37351562 -98.83820313 262.74703125 -99.78515625 262.1015625 C-106.15468637 257.586665 -111.71960044 252.55890656 -117.25 247.0625 C-117.91870117 246.39927734 -118.58740234 245.73605469 -119.27636719 245.05273438 C-124 240.25734391 -124 240.25734391 -124 238 C-124.66 238 -125.32 238 -126 238 C-127.20166016 236.6015625 -127.20166016 236.6015625 -128.5390625 234.625 C-129.03325684 233.89506836 -129.52745117 233.16513672 -130.03662109 232.41308594 C-130.82286865 231.2186084 -130.82286865 231.2186084 -131.625 230 C-132.43251709 228.77845215 -132.43251709 228.77845215 -133.25634766 227.53222656 C-137.78722632 220.55518783 -141.67665287 213.41101247 -145.14599609 205.85546875 C-145.95778549 204.0917182 -146.80036556 202.34223571 -147.64453125 200.59375 C-150.78742369 193.7828236 -152.97083455 187.00908001 -154.8125 179.75 C-155.01963623 178.9343457 -155.22677246 178.11869141 -155.44018555 177.27832031 C-157.87189659 167.12518378 -158.18656093 157.13171439 -158.18530273 146.71508789 C-158.18748524 144.70111808 -158.20570092 142.68770143 -158.22460938 140.67382812 C-158.24141992 129.27067601 -156.9789378 118.35594908 -153.875 107.375 C-153.66399658 106.62702148 -153.45299316 105.87904297 -153.2355957 105.10839844 C-146.23760668 81.35914276 -133.97457109 60.98708937 -117 43 C-116.32710937 42.26265625 -115.65421875 41.5253125 -114.9609375 40.765625 C-92.82566045 17.38679306 -58.76689254 1.81044749 -26.69921875 0.0859375 C-17.79637722 -0.1208867 -8.90402528 -0.14065084 0 0 Z " fill="#DCDDDE" transform="translate(173,15)"/>
<path d="M0 0 C1.29550781 0.01675781 2.59101563 0.03351562 3.92578125 0.05078125 C36.67652126 1.39775646 70.19716537 20.25805857 92.56835938 43.63916016 C95.88815947 47.29287288 98.97152446 51.10269951 102 55 C102.62132812 55.79535156 103.24265625 56.59070313 103.8828125 57.41015625 C122.74077955 82.97805111 132.22234193 113.3486984 132.25 144.9375 C132.25067474 145.62941437 132.25134949 146.32132874 132.25204468 147.03421021 C132.19414554 184.42244527 116.78313056 220.02980082 91 247 C90.12021484 247.97453125 90.12021484 247.97453125 89.22265625 248.96875 C66.01760634 273.74788426 29.68863072 288.72506423 -3.99121094 290.12426758 C-37.83376814 290.99430467 -69.05212837 284.1004397 -97 264 C-97.91910156 263.37351562 -98.83820313 262.74703125 -99.78515625 262.1015625 C-106.15468637 257.586665 -111.71960044 252.55890656 -117.25 247.0625 C-117.91870117 246.39927734 -118.58740234 245.73605469 -119.27636719 245.05273438 C-124 240.25734391 -124 240.25734391 -124 238 C-124.66 238 -125.32 238 -126 238 C-127.20166016 236.6015625 -127.20166016 236.6015625 -128.5390625 234.625 C-129.03325684 233.89506836 -129.52745117 233.16513672 -130.03662109 232.41308594 C-130.82286865 231.2186084 -130.82286865 231.2186084 -131.625 230 C-132.43251709 228.77845215 -132.43251709 228.77845215 -133.25634766 227.53222656 C-137.78722632 220.55518783 -141.67665287 213.41101247 -145.14599609 205.85546875 C-145.95778549 204.0917182 -146.80036556 202.34223571 -147.64453125 200.59375 C-150.78742369 193.7828236 -152.97083455 187.00908001 -154.8125 179.75 C-155.01963623 178.9343457 -155.22677246 178.11869141 -155.44018555 177.27832031 C-157.87189659 167.12518378 -158.18656093 157.13171439 -158.18530273 146.71508789 C-158.18748524 144.70111808 -158.20570092 142.68770143 -158.22460938 140.67382812 C-158.24141992 129.27067601 -156.9789378 118.35594908 -153.875 107.375 C-153.66399658 106.62702148 -153.45299316 105.87904297 -153.2355957 105.10839844 C-146.23760668 81.35914276 -133.97457109 60.98708937 -117 43 C-116.32710937 42.26265625 -115.65421875 41.5253125 -114.9609375 40.765625 C-92.82566045 17.38679306 -58.76689254 1.81044749 -26.69921875 0.0859375 C-17.79637722 -0.1208867 -8.90402528 -0.14065084 0 0 Z M-44 28 C-45.63582031 28.40025391 -45.63582031 28.40025391 -47.3046875 28.80859375 C-66.41922464 34.06625983 -82.75801634 44.36306793 -97 58 C-97.80953125 58.73476562 -98.6190625 59.46953125 -99.453125 60.2265625 C-112.18029996 72.19330877 -120.25723315 87.06189144 -127 103 C-127.28206299 103.65758301 -127.56412598 104.31516602 -127.85473633 104.99267578 C-138.69170756 131.78528658 -134.69869688 166.9096023 -124 193 C-110.26038245 223.72968163 -85.07242534 246.71892975 -53.9375 259.125 C-51.97045823 259.78717248 -49.98924927 260.40787414 -48 261 C-47.38431152 261.18336914 -46.76862305 261.36673828 -46.13427734 261.55566406 C-35.50069901 264.58066757 -25.16288621 265.36091208 -14.125 265.375 C-12.92568848 265.37661133 -11.72637695 265.37822266 -10.49072266 265.37988281 C22.28846948 264.97358515 50.95964461 251.91729809 73.96875 229.09375 C97.59500483 204.85382621 107.48907788 172.78760453 107.1484375 139.515625 C106.48370197 107.58652516 91.77162992 78.8328424 69.4765625 56.46875 C51.96110319 39.8264954 31.10231419 31.60515164 8 26 C7.401875 25.82130371 6.80375 25.64260742 6.1875 25.45849609 C0.70654436 24.30969758 -5.10421024 24.75549807 -10.6875 24.75 C-11.38840759 24.74899292 -12.08931519 24.74798584 -12.8114624 24.74694824 C-23.50079019 24.7573652 -33.60261553 25.3134275 -44 28 Z " fill="#555557" transform="translate(173,15)"/>
<path d="M0 0 C0.27150879 0.62865967 0.54301758 1.25731934 0.82275391 1.9050293 C6.74592698 15.69989899 6.74592698 15.69989899 12.9375 29.375 C21.040246 46.72494765 28.48762576 64.38902433 36 82 C46.56 82 57.12 82 68 82 C79.8735582 55.08660142 91.59693845 28.11648729 103 1 C110.59649352 1 117.53280799 7.96442841 123 13 C123 13.66 123 14.32 123 15 C123.58136719 15.24363281 124.16273438 15.48726562 124.76171875 15.73828125 C127.40159913 17.22638136 128.89702051 18.84456614 130.8125 21.1875 C131.43769531 21.92355469 132.06289062 22.65960938 132.70703125 23.41796875 C134.85246652 27.70235761 133.43022694 31.69660816 131.9753418 36.10424805 C131.55422119 37.14621338 131.13310059 38.18817871 130.69921875 39.26171875 C129.98523926 41.0408667 129.98523926 41.0408667 129.25683594 42.85595703 C128.73419347 44.13333023 128.21106799 45.41050588 127.6875 46.6875 C127.14196938 48.03227446 126.59672702 49.3771659 126.05175781 50.72216797 C117.91753016 70.73021123 109.25385166 90.50719643 100.5 110.25 C100.15457153 111.02998352 99.80914307 111.80996704 99.45324707 112.61358643 C98.4606493 114.85276708 97.46521215 117.09066176 96.46875 119.328125 C96.17752258 119.98535553 95.88629517 120.64258606 95.58624268 121.31973267 C93.5189974 125.94831391 91.29063491 130.47768957 89 135 C88.34 135 87.68 135 87 135 C84.7756802 130.0014899 82.55198687 125.00270174 80.32885742 120.00366211 C79.57349307 118.30534452 78.81796171 116.6071012 78.06225586 114.90893555 C76.97204701 112.45901994 75.88245176 110.00883221 74.79296875 107.55859375 C74.45847214 106.80726669 74.12397552 106.05593964 73.77934265 105.28184509 C73.45923721 104.56162674 73.13913177 103.84140839 72.80932617 103.09936523 C72.53174973 102.47537338 72.25417328 101.85138153 71.96818542 101.20848083 C70.62620531 98.14735506 69.31662195 95.07211788 68 92 C57.44 92 46.88 92 36 92 C34.96359375 94.34996094 33.9271875 96.69992188 32.859375 99.12109375 C31.84329204 101.42473668 30.82716562 103.72836044 29.81103516 106.03198242 C29.11079451 107.61952753 28.41059827 109.20709223 27.71044922 110.79467773 C20.5508225 127.02895258 20.5508225 127.02895258 17 135 C16.34 135 15.68 135 15 135 C1.71406176 107.70801846 -10.15376358 79.75210106 -21.53173828 51.61962891 C-22.8290261 48.42149303 -24.14355475 45.23123635 -25.46484375 42.04296875 C-26.12345658 40.42491053 -26.78112482 38.80646723 -27.4375 37.1875 C-27.870625 36.15786133 -27.870625 36.15786133 -28.3125 35.10742188 C-29.80871367 31.34338695 -30.41076845 28.85049188 -29 25 C-24.43464451 17.51017041 -9.34534815 0 0 0 Z " fill="#545557" transform="translate(108,73)"/>
<path d="M0 0 C1.29550781 0.01675781 2.59101563 0.03351562 3.92578125 0.05078125 C36.67652126 1.39775646 70.19716537 20.25805857 92.56835938 43.63916016 C95.88815947 47.29287288 98.97152446 51.10269951 102 55 C102.62132812 55.79535156 103.24265625 56.59070313 103.8828125 57.41015625 C122.74077955 82.97805111 132.22234193 113.3486984 132.25 144.9375 C132.25067474 145.62941437 132.25134949 146.32132874 132.25204468 147.03421021 C132.19414554 184.42244527 116.78313056 220.02980082 91 247 C90.12021484 247.97453125 90.12021484 247.97453125 89.22265625 248.96875 C66.01760634 273.74788426 29.68863072 288.72506423 -3.99121094 290.12426758 C-37.83376814 290.99430467 -69.05212837 284.1004397 -97 264 C-97.91910156 263.37351562 -98.83820313 262.74703125 -99.78515625 262.1015625 C-106.15468637 257.586665 -111.71960044 252.55890656 -117.25 247.0625 C-117.91870117 246.39927734 -118.58740234 245.73605469 -119.27636719 245.05273438 C-124 240.25734391 -124 240.25734391 -124 238 C-124.66 238 -125.32 238 -126 238 C-127.20166016 236.6015625 -127.20166016 236.6015625 -128.5390625 234.625 C-129.03325684 233.89506836 -129.52745117 233.16513672 -130.03662109 232.41308594 C-130.82286865 231.2186084 -130.82286865 231.2186084 -131.625 230 C-132.43251709 228.77845215 -132.43251709 228.77845215 -133.25634766 227.53222656 C-137.78722632 220.55518783 -141.67665287 213.41101247 -145.14599609 205.85546875 C-145.95778549 204.0917182 -146.80036556 202.34223571 -147.64453125 200.59375 C-150.78742369 193.7828236 -152.97083455 187.00908001 -154.8125 179.75 C-155.01963623 178.9343457 -155.22677246 178.11869141 -155.44018555 177.27832031 C-157.87189659 167.12518378 -158.18656093 157.13171439 -158.18530273 146.71508789 C-158.18748524 144.70111808 -158.20570092 142.68770143 -158.22460938 140.67382812 C-158.24141992 129.27067601 -156.9789378 118.35594908 -153.875 107.375 C-153.66399658 106.62702148 -153.45299316 105.87904297 -153.2355957 105.10839844 C-146.23760668 81.35914276 -133.97457109 60.98708937 -117 43 C-116.32710937 42.26265625 -115.65421875 41.5253125 -114.9609375 40.765625 C-92.82566045 17.38679306 -58.76689254 1.81044749 -26.69921875 0.0859375 C-17.79637722 -0.1208867 -8.90402528 -0.14065084 0 0 Z M-37 9 C-38.30333731 10.99056609 -38.30333731 10.99056609 -39 13 C-39.65226562 12.78859375 -40.30453125 12.5771875 -40.9765625 12.359375 C-45.16388772 11.86165676 -48.39983026 12.99212286 -52.375 14.25 C-53.10460937 14.46785156 -53.83421875 14.68570312 -54.5859375 14.91015625 C-64.4235273 17.91413456 -73.50213637 22.30127767 -82.140625 27.859375 C-84 29 -84 29 -86.875 30.3125 C-93.21186413 33.73440663 -99.16207954 38.66045184 -104 44 C-104 44.66 -104 45.32 -104 46 C-104.99 46 -105.98 46 -107 46 C-107 46.66 -107 47.32 -107 48 C-108.32 48.66 -109.64 49.32 -111 50 C-110.67 50.99 -110.34 51.98 -110 53 C-113 55 -113 55 -114.90234375 55.796875 C-117.80536013 57.46191977 -119.46606763 59.65340356 -121.5625 62.25 C-122.32691406 63.18328125 -123.09132813 64.1165625 -123.87890625 65.078125 C-125.96467506 67.95133876 -127.46937364 70.80526243 -129 74 C-130.84171066 76.49522089 -132.64455221 78.67881224 -134.9453125 80.7578125 C-150.42387046 97.64886244 -151.90058491 131.16966651 -151.12548828 152.47119141 C-150.55084058 164.05134871 -148.25650293 174.90234882 -145 186 C-144.64615234 187.35544922 -144.64615234 187.35544922 -144.28515625 188.73828125 C-142.42728143 195.63110677 -139.33674224 201.71183957 -136 208 C-135.54753906 208.89589844 -135.09507812 209.79179687 -134.62890625 210.71484375 C-118.45480611 241.91756952 -89.75506263 265.79975176 -56.4140625 276.68359375 C-20.09887306 287.87440179 18.55661521 284.77711508 52.2734375 267.0390625 C61.21087218 262.20912195 69.24940177 256.55725215 77 250 C78.21816406 248.98486328 78.21816406 248.98486328 79.4609375 247.94921875 C94.02679829 235.38214328 105.0875696 219.4891996 113 202 C113.3005127 201.36900391 113.60102539 200.73800781 113.91064453 200.08789062 C125.79093731 174.53085565 129.21465493 142.29513053 122 115 C121.78005371 114.1538916 121.56010742 113.3077832 121.33349609 112.43603516 C116.00100587 92.21835091 108.14183853 72.77785515 94 57 C93.28070313 56.17371094 92.56140625 55.34742188 91.8203125 54.49609375 C89.58325197 51.9610165 87.3061584 49.47229674 85 47 C84.27941406 46.22527344 83.55882812 45.45054688 82.81640625 44.65234375 C60.04161371 20.98442209 25.96789006 7.55480668 -6.5859375 6.81640625 C-8.99471569 6.78714851 -11.40359129 6.7650729 -13.8125 6.75 C-15.5303772 6.7358606 -15.5303772 6.7358606 -17.28295898 6.72143555 C-27.34684784 6.59092154 -27.34684784 6.59092154 -37 9 Z " fill="#A3A4A7" transform="translate(173,15)"/>
<path d="M0 0 C0.27150879 0.62865967 0.54301758 1.25731934 0.82275391 1.9050293 C6.74592698 15.69989899 6.74592698 15.69989899 12.9375 29.375 C21.040246 46.72494765 28.48762576 64.38902433 36 82 C51.84 82.495 51.84 82.495 68 83 C68 83.33 68 83.66 68 84 C57.44 84 46.88 84 36 84 C35.505 85.485 35.505 85.485 35 87 C34.34 87 33.68 87 33 87 C35.83007002 89.83007002 38.61952852 89.35245926 42.4140625 89.4140625 C43.14370209 89.43342865 43.87334167 89.4527948 44.62509155 89.4727478 C46.95827502 89.53258422 49.29150773 89.57894423 51.625 89.625 C53.20575082 89.66317614 54.78648076 89.70222765 56.3671875 89.7421875 C60.2446223 89.83828878 64.12215449 89.92230412 68 90 C68 90.33 68 90.66 68 91 C52.16 91.495 52.16 91.495 36 92 C34.96359375 94.34996094 33.9271875 96.69992188 32.859375 99.12109375 C31.84329204 101.42473668 30.82716562 103.72836044 29.81103516 106.03198242 C29.11079451 107.61952753 28.41059827 109.20709223 27.71044922 110.79467773 C20.5508225 127.02895258 20.5508225 127.02895258 17 135 C16.34 135 15.68 135 15 135 C1.71406176 107.70801846 -10.15376358 79.75210106 -21.53173828 51.61962891 C-22.8290261 48.42149303 -24.14355475 45.23123635 -25.46484375 42.04296875 C-26.12345658 40.42491053 -26.78112482 38.80646723 -27.4375 37.1875 C-27.870625 36.15786133 -27.870625 36.15786133 -28.3125 35.10742188 C-29.80871367 31.34338695 -30.41076845 28.85049188 -29 25 C-24.43464451 17.51017041 -9.34534815 0 0 0 Z " fill="#727376" transform="translate(108,73)"/>
<path d="M0 0 C0.66 0 1.32 0 2 0 C2.30703857 0.78536133 2.61407715 1.57072266 2.93041992 2.37988281 C4.09424538 5.35490481 5.25926918 8.32945421 6.42504883 11.30371094 C6.92486199 12.57957085 7.42422705 13.85560642 7.9230957 15.13183594 C12.06415046 25.72426201 16.2885086 36.27123829 20.9453125 46.64892578 C22.17261214 49.38478122 23.38324081 52.12776856 24.59375 54.87109375 C37.52951643 84.36425295 37.52951643 84.36425295 51.67871094 113.28393555 C53.15566767 116.15288775 54.41127892 118.81305656 55 122 C42.93374031 117.64712501 32.94457655 108.93151877 24 100 C23.27167969 99.28328125 22.54335937 98.5665625 21.79296875 97.828125 C11.87517994 87.42129335 5.74008092 74.40984184 1 61 C0.68289062 60.10667969 0.36578125 59.21335938 0.0390625 58.29296875 C-6.30580444 38.85003489 -4.8914329 19.50022135 0 0 Z " fill="#59595B" transform="translate(62,130)"/>
<path d="M0 0 C0.66 0 1.32 0 2 0 C2.48362696 2.16567544 2.96167317 4.33259741 3.4375 6.5 C3.70433594 7.7065625 3.97117187 8.913125 4.24609375 10.15625 C9.29111519 35.87801732 4.07048709 62.80126654 -10 85 C-20.90475258 100.5917173 -34.17930576 113.00431737 -51 122 C-51.66 122 -52.32 122 -53 122 C-51.63446987 117.59995849 -49.91779159 113.5840551 -47.8671875 109.4609375 C-47.22761306 108.16487777 -46.58838804 106.86864556 -45.94946289 105.57226562 C-45.61222198 104.89075439 -45.27498108 104.20924316 -44.92752075 103.50708008 C-32.16134386 77.64677151 -20.67547428 51.2578266 -9.625 24.625 C-9.25384064 23.73079346 -8.88268127 22.83658691 -8.50027466 21.9152832 C-7.44755577 19.37449487 -6.39859795 16.83219757 -5.3515625 14.2890625 C-5.04086319 13.53754913 -4.73016388 12.78603577 -4.41004944 12.01174927 C-2.78594308 8.04911413 -1.30081172 4.08401852 0 0 Z " fill="#444446" transform="translate(256,130)"/>
<path d="M0 0 C0.66 0 1.32 0 2 0 C2.77029866 1.67601357 3.54058998 3.35203052 4.31085205 5.02806091 C5.0027381 6.53350547 5.69467488 8.03892671 6.38665771 9.54432678 C8.30806882 13.72472367 10.22825682 17.90567574 12.14624023 22.08764648 C15.60261389 29.62175369 19.06328467 37.15311406 22.578125 44.66015625 C23.09012451 45.75908203 23.60212402 46.85800781 24.12963867 47.99023438 C25.06375391 49.99311496 26.00374572 51.99326846 26.95043945 53.99023438 C27.3599585 54.87130859 27.76947754 55.75238281 28.19140625 56.66015625 C28.72036499 57.78369507 28.72036499 57.78369507 29.26000977 58.92993164 C30 61 30 61 30 65 C9.933376 70.13705574 -7.97716677 70.47633046 -28 65 C-27.42745975 59.44452704 -25.39561998 55.05253561 -23.02734375 50.078125 C-22.62600723 49.21926697 -22.22467072 48.36040894 -21.81117249 47.4755249 C-20.52685635 44.73038047 -19.23263575 41.99005404 -17.9375 39.25 C-16.25629238 35.67319609 -14.57907056 32.0945312 -12.90234375 28.515625 C-12.49196869 27.64151978 -12.08159363 26.76741455 -11.65878296 25.86682129 C-7.64741644 17.2996325 -3.80251624 8.66154474 0 0 Z " fill="#4A4A4C" transform="translate(159,193)"/>
<path d="M0 0 C-1.61367285 4.16207403 -3.43905007 8.21405646 -5.30859375 12.265625 C-5.97533614 13.71700623 -6.64199962 15.16842371 -7.30859375 16.61987305 C-7.65647949 17.37634125 -8.00436523 18.13280945 -8.36279297 18.91220093 C-15.39510234 34.20951065 -22.29010016 49.55812779 -29 65 C-29.66 65 -30.32 65 -31 65 C-31.31525635 64.29431885 -31.6305127 63.5886377 -31.95532227 62.86157227 C-33.20304771 60.07002438 -34.45164287 57.27886738 -35.70083618 54.48797607 C-36.27479243 53.20541204 -36.84850299 51.92273802 -37.42196655 50.63995361 C-40.97828749 42.6865845 -44.56506808 34.74837546 -48.203125 26.83203125 C-48.89516087 25.32286278 -49.58713737 23.81366708 -50.27905273 22.30444336 C-51.29261218 20.0939583 -52.30811236 17.88447612 -53.3298645 15.67776489 C-54.2834437 13.61813798 -55.23021333 11.5555018 -56.17578125 9.4921875 C-56.72145752 8.30995605 -57.26713379 7.12772461 -57.8293457 5.90966797 C-59 3 -59 3 -59 0 C-56.93771534 -0.48009262 -54.87516299 -0.95903544 -52.8125 -1.4375 C-51.08966797 -1.83775391 -51.08966797 -1.83775391 -49.33203125 -2.24609375 C-48.23246094 -2.49488281 -47.13289062 -2.74367187 -46 -3 C-45.23171875 -3.19078125 -44.4634375 -3.3815625 -43.671875 -3.578125 C-28.95499023 -5.90184365 -14.30545805 -3.44191472 0 0 Z " fill="#747578" transform="translate(190,62)"/>
<path d="M0 0 C1.29550781 0.01675781 2.59101563 0.03351562 3.92578125 0.05078125 C36.67652126 1.39775646 70.19716537 20.25805857 92.56835938 43.63916016 C95.88815947 47.29287288 98.97152446 51.10269951 102 55 C102.62132812 55.79535156 103.24265625 56.59070313 103.8828125 57.41015625 C122.74077955 82.97805111 132.22234193 113.3486984 132.25 144.9375 C132.25067474 145.62941437 132.25134949 146.32132874 132.25204468 147.03421021 C132.19414554 184.42244527 116.78313056 220.02980082 91 247 C90.12021484 247.97453125 90.12021484 247.97453125 89.22265625 248.96875 C66.01760634 273.74788426 29.68863072 288.72506423 -3.99121094 290.12426758 C-37.83376814 290.99430467 -69.05212837 284.1004397 -97 264 C-97.91910156 263.37351562 -98.83820313 262.74703125 -99.78515625 262.1015625 C-106.15468637 257.586665 -111.71960044 252.55890656 -117.25 247.0625 C-117.91870117 246.39927734 -118.58740234 245.73605469 -119.27636719 245.05273438 C-124 240.25734391 -124 240.25734391 -124 238 C-124.66 238 -125.32 238 -126 238 C-127.20166016 236.6015625 -127.20166016 236.6015625 -128.5390625 234.625 C-129.03325684 233.89506836 -129.52745117 233.16513672 -130.03662109 232.41308594 C-130.82286865 231.2186084 -130.82286865 231.2186084 -131.625 230 C-132.43251709 228.77845215 -132.43251709 228.77845215 -133.25634766 227.53222656 C-137.78722632 220.55518783 -141.67665287 213.41101247 -145.14599609 205.85546875 C-145.95778549 204.0917182 -146.80036556 202.34223571 -147.64453125 200.59375 C-150.78742369 193.7828236 -152.97083455 187.00908001 -154.8125 179.75 C-155.01963623 178.9343457 -155.22677246 178.11869141 -155.44018555 177.27832031 C-157.87189659 167.12518378 -158.18656093 157.13171439 -158.18530273 146.71508789 C-158.18748524 144.70111808 -158.20570092 142.68770143 -158.22460938 140.67382812 C-158.24141992 129.27067601 -156.9789378 118.35594908 -153.875 107.375 C-153.66399658 106.62702148 -153.45299316 105.87904297 -153.2355957 105.10839844 C-146.23760668 81.35914276 -133.97457109 60.98708937 -117 43 C-116.32710937 42.26265625 -115.65421875 41.5253125 -114.9609375 40.765625 C-92.82566045 17.38679306 -58.76689254 1.81044749 -26.69921875 0.0859375 C-17.79637722 -0.1208867 -8.90402528 -0.14065084 0 0 Z M-57.4375 8.1875 C-58.3229248 8.48720703 -59.20834961 8.78691406 -60.12060547 9.09570312 C-81.28624819 16.49014701 -98.65575447 28.8212185 -115 44 C-115.90685547 44.82564453 -115.90685547 44.82564453 -116.83203125 45.66796875 C-133.54255253 61.51752641 -145.2061334 83.99570928 -151.5 105.9375 C-151.73074219 106.73969971 -151.96148437 107.54189941 -152.19921875 108.3684082 C-155.42954453 120.4417508 -156.3914875 132.60187674 -156.375 145.0625 C-156.37478851 145.73231903 -156.37457703 146.40213806 -156.37435913 147.09225464 C-156.32044562 164.32234837 -153.43091307 180.00758274 -147 196 C-146.57074219 197.19625 -146.14148438 198.3925 -145.69921875 199.625 C-140.34891824 214.09341827 -132.13368838 226.40234538 -122 238 C-121.40574219 238.70382813 -120.81148437 239.40765625 -120.19921875 240.1328125 C-118.50119436 242.12359972 -116.76525566 244.06864807 -115 246 C-114.35933594 246.70640625 -113.71867187 247.4128125 -113.05859375 248.140625 C-104.1949354 257.47766474 -93.24551473 264.80903035 -82 271 C-80.99066406 271.56332031 -79.98132813 272.12664062 -78.94140625 272.70703125 C-69.34394219 277.79978963 -59.46992063 281.15613754 -49 284 C-48.24041992 284.21317871 -47.48083984 284.42635742 -46.69824219 284.64599609 C-16.59976048 292.81521379 16.85735496 288.89316543 45 276 C46.04124023 275.52989502 46.04124023 275.52989502 47.10351562 275.05029297 C56.78662724 270.62083238 65.47518137 265.38233775 74 259 C74.87140625 258.35289062 75.7428125 257.70578125 76.640625 257.0390625 C95.92326925 242.18293721 114.21266684 219.73534469 121 196 C121.49768993 194.60334134 121.99769404 193.20750517 122.5 191.8125 C123.88199728 187.61364489 124.98367943 183.34731561 126.0625 179.0625 C126.30613281 178.09630737 126.30613281 178.09630737 126.5546875 177.1105957 C127.0554369 175.07782793 127.52794695 173.03960771 128 171 C128.18240234 170.28295898 128.36480469 169.56591797 128.55273438 168.82714844 C130.37835582 160.99137181 130.39738671 153.12734346 130.375 145.125 C130.37445618 144.39489716 130.37391235 143.66479431 130.37335205 142.91256714 C130.33224895 130.89221133 129.35720121 119.5815777 126 108 C125.67854004 106.8560376 125.67854004 106.8560376 125.35058594 105.68896484 C119.23097222 84.40393285 108.44527077 65.70541518 94 49 C93.32066406 48.13246094 92.64132812 47.26492187 91.94140625 46.37109375 C90.1443386 44.17628477 88.34449151 42.39440521 86.1875 40.5625 C85.49785156 39.9746875 84.80820312 39.386875 84.09765625 38.78125 C83.05931641 37.89953125 83.05931641 37.89953125 82 37 C81.33871094 36.4121875 80.67742187 35.824375 79.99609375 35.21875 C79.06990234 34.39890625 79.06990234 34.39890625 78.125 33.5625 C77.29355469 32.82193359 77.29355469 32.82193359 76.4453125 32.06640625 C75.03113379 30.80209393 75.03113379 30.80209393 73 31 C73 30.34 73 29.68 73 29 C61.21945033 20.4565405 47.07470193 12.75018426 33.125 8.65625 C31 8 31 8 30 7 C28.67643257 6.6484274 27.34021286 6.34403777 26 6.0625 C21.14299665 5.0343192 21.14299665 5.0343192 18.75390625 4.4609375 C8.44489342 1.99853515 -1.90392575 1.78756375 -12.45678711 1.75976562 C-14.66624095 1.75009307 -16.87474867 1.71898671 -19.08398438 1.6875 C-32.4277405 1.58666979 -44.77349052 3.86161287 -57.4375 8.1875 Z " fill="#0F1610" transform="translate(173,15)"/>
<path d="M0 0 C0.495 2.475 0.495 2.475 1 5 C0.46858398 5.1544458 -0.06283203 5.3088916 -0.61035156 5.46801758 C-36.44667116 16.09997064 -65.7997603 38.06120406 -84.08691406 70.95507812 C-91.11431765 83.99049765 -96.19300115 97.42114971 -99 112 C-99.20625 113.04027344 -99.4125 114.08054687 -99.625 115.15234375 C-102.19872593 130.18361811 -101.63973441 145.57685506 -99.4453125 160.61328125 C-98.89470237 164.80081621 -98.84947525 168.78530713 -99 173 C-99.99 173.33 -100.98 173.66 -102 174 C-106.31646186 162.34555299 -107.36470924 151.26826375 -107.3125 138.875 C-107.31067719 138.18991364 -107.30885437 137.50482727 -107.30697632 136.79898071 C-107.25951449 126.19767803 -106.60586667 116.29737638 -104 106 C-103.83371094 105.28134766 -103.66742188 104.56269531 -103.49609375 103.82226562 C-100.99028175 93.0101509 -97.22390033 83.54193365 -91.94921875 73.79589844 C-90.55602691 71.16001387 -89.32501948 68.45038889 -88.0625 65.75 C-76.46669768 42.6830814 -53.74879734 22.68496245 -31 11 C-30.10023437 10.51917969 -29.20046875 10.03835937 -28.2734375 9.54296875 C-8.87790256 -0.56420315 -8.87790256 -0.56420315 0 0 Z " fill="#D3D5D6" transform="translate(124,22)"/>
<path d="M0 0 C0.33 0 0.66 0 1 0 C1.18175781 0.75023437 1.36351562 1.50046875 1.55078125 2.2734375 C2.34827939 5.52068635 3.16912735 8.76113533 4 12 C4.32484375 13.28777344 4.32484375 13.28777344 4.65625 14.6015625 C6.55399777 21.53737874 9.6385467 27.66527105 13 34 C13.67869141 35.34384766 13.67869141 35.34384766 14.37109375 36.71484375 C30.71282013 68.24095044 58.98269941 90.42821558 92.25390625 101.87109375 C96.55549335 103.16740102 100.86944684 104.25787597 105.25 105.25 C105.97034424 105.41330811 106.69068848 105.57661621 107.43286133 105.74487305 C117.11365191 107.81279656 126.68680664 108.1607599 136.5625 108.125 C137.63435547 108.12886719 138.70621094 108.13273437 139.81054688 108.13671875 C145.9573246 108.12919976 151.9056958 107.80575271 158 107 C157.01 107.495 157.01 107.495 156 108 C155.67 108.99 155.34 109.98 155 111 C154.01 111 153.02 111 152 111 C152.99 111.66 153.98 112.32 155 113 C126.36712341 119.58939266 90.86468818 111.60562613 66 97 C64.92234375 96.37738281 63.8446875 95.75476563 62.734375 95.11328125 C44.83347286 84.31182067 29.9539172 71.22627498 18 54 C17.44828125 53.22011719 16.8965625 52.44023437 16.328125 51.63671875 C10.49549538 43.17339278 5.91598384 34.24202059 2.09375 24.7109375 C1.23076468 22.57196675 0.28591098 20.46603098 -0.6875 18.375 C-2.38679223 14.0053914 -3.21164301 9.60956967 -4 5 C-3.67 5.66 -3.34 6.32 -3 7 C-2.34 6.67 -1.68 6.34 -1 6 C-0.34227572 2.97065509 -0.34227572 2.97065509 0 0 Z " fill="#969699" transform="translate(25,189)"/>
<path d="M0 0 C0.99 0.33 1.98 0.66 3 1 C3.94329345 13.36762517 0.35354311 25.5074715 -4 37 C-4.32355469 37.87269531 -4.64710938 38.74539062 -4.98046875 39.64453125 C-12.23451418 58.13863343 -23.35106736 73.67904861 -37 88 C-37.50490967 88.53407471 -38.00981934 89.06814941 -38.5300293 89.6184082 C-42.83495945 94.06452386 -47.4152101 97.8296151 -52.4375 101.4375 C-53.60949951 102.28054688 -53.60949951 102.28054688 -54.80517578 103.140625 C-62.15885406 108.30943946 -69.80205705 112.35571949 -78 116 C-79.02351563 116.46792969 -80.04703125 116.93585938 -81.1015625 117.41796875 C-91.88429713 122.14086465 -104.31399674 127.03444472 -116.1875 127.25 C-117.04730469 127.27578125 -117.90710938 127.3015625 -118.79296875 127.328125 C-119.52128906 127.21984375 -120.24960938 127.1115625 -121 127 C-121.66 126.01 -122.32 125.02 -123 124 C-122.236875 124.226875 -121.47375 124.45375 -120.6875 124.6875 C-119.800625 124.790625 -118.91375 124.89375 -118 125 C-117.32735107 124.31599121 -117.32735107 124.31599121 -116.64111328 123.61816406 C-114.55656515 121.56276611 -112.87421841 121.1670846 -110.0546875 120.421875 C-109.06855469 120.15205811 -108.08242187 119.88224121 -107.06640625 119.60424805 C-106.01324219 119.32234619 -104.96007812 119.04044434 -103.875 118.75 C-82.76908827 112.80845944 -64.704853 104.45667006 -48 90 C-47.17113281 89.30390625 -46.34226562 88.6078125 -45.48828125 87.890625 C-31.19009417 75.54119542 -18.51001131 58.38589558 -11.96557617 40.56933594 C-11.05552977 38.14776113 -10.06054026 35.77970485 -9.05078125 33.3984375 C-6.86722425 27.95792172 -5.57073114 22.47692283 -4.375 16.75 C-1.91860257 5.24535382 -1.91860257 5.24535382 0 0 Z " fill="#CECED1" transform="translate(298,174)"/>
<path d="M0 0 C7.32487151 2.62248486 13.55032053 7.61567728 18 14 C17.01 14.33 16.02 14.66 15 15 C12.51953125 13.56640625 12.51953125 13.56640625 9.8125 11.5625 C8.91144531 10.90378906 8.01039063 10.24507812 7.08203125 9.56640625 C6.05142578 8.79103516 6.05142578 8.79103516 5 8 C4.01 10.97 3.02 13.94 2 17 C1.34 17 0.68 17 0 17 C-0.20625 18.216875 -0.4125 19.43375 -0.625 20.6875 C-2.37845525 28.62814733 -6.34500318 35.82295511 -10.0625 43 C-11.78288514 46.36967998 -13.10845299 49.83362628 -14.4375 53.375 C-16.29658367 58.31354741 -18.39411102 62.98624635 -20.8125 67.671875 C-23.566133 73.07044496 -25.88041971 78.65394387 -28.12109375 84.28125 C-28.47486084 85.16876953 -28.82862793 86.05628906 -29.19311523 86.97070312 C-29.45938721 87.64037109 -29.72565918 88.31003906 -30 89 C-34.76881876 89.09900135 -39.5370373 89.17152928 -44.30664062 89.21972656 C-45.92849143 89.23982144 -47.55026997 89.26710254 -49.171875 89.30175781 C-51.5053898 89.3503727 -53.83794557 89.37298889 -56.171875 89.390625 C-57.25647003 89.42159271 -57.25647003 89.42159271 -58.36297607 89.45318604 C-61.90244128 89.45475769 -63.6687274 89.26109323 -66.48925781 87.03808594 C-68 85 -68 85 -68 84 C-57.44 84 -46.88 84 -36 84 C-35.01 81.03 -34.02 78.06 -33 75 C-32.29559492 73.24622798 -31.56415846 71.50279129 -30.79296875 69.77734375 C-30.37821289 68.84277344 -29.96345703 67.90820312 -29.53613281 66.9453125 C-29.09108398 65.95273438 -28.64603516 64.96015625 -28.1875 63.9375 C-27.20663405 61.72804087 -26.22618662 59.51839591 -25.24609375 57.30859375 C-24.46274658 55.54684814 -24.46274658 55.54684814 -23.66357422 53.74951172 C-20.66998637 47.00953901 -17.70939854 40.25503697 -14.75 33.5 C-14.4499707 32.81580994 -14.14994141 32.13161987 -13.84082031 31.42669678 C-10.0731927 22.8301344 -6.34975724 14.21972214 -2.86425781 5.50390625 C-1.09419653 1.09419653 -1.09419653 1.09419653 0 0 Z " fill="#3F3F40" transform="translate(212,73)"/>
<path d="M0 0 C1.30588068 2.1508623 2.06594683 3.42694482 1.7734375 5.96875 C0.81681714 8.48108631 -0.22631316 9.2605519 -2.4375 10.75 C-3.05496094 11.17796875 -3.67242187 11.6059375 -4.30859375 12.046875 C-6 13 -6 13 -8 13 C-8 13.66 -8 14.32 -8 15 C-9.50390625 16.41015625 -9.50390625 16.41015625 -11.5625 18.0625 C-14.65816848 20.71593013 -17.44218991 23.43503312 -20.0625 26.5625 C-20.65160156 27.26503906 -21.24070312 27.96757813 -21.84765625 28.69140625 C-23.44073659 31.88296721 -22.90513628 33.58965241 -22 37 C-21.30416071 39.06075483 -20.55080274 41.10271967 -19.75 43.125 C-19.35296875 44.13820312 -18.9559375 45.15140625 -18.546875 46.1953125 C-18.0329565 47.46423414 -17.51711646 48.73237824 -17 50 C-16.68691895 50.77649902 -16.37383789 51.55299805 -16.05126953 52.35302734 C-12.16523822 61.84901939 -7.9082089 71.17740281 -3.66992188 80.52001953 C-2.36882028 83.38862474 -1.07093513 86.25866941 0.2265625 89.12890625 C1.05970737 90.96883535 1.89303423 92.80868206 2.7265625 94.6484375 C3.11099518 95.49852386 3.49542786 96.34861023 3.89151001 97.22445679 C5.84574647 101.52818858 7.85899313 105.78486784 10 110 C11.72173601 113.64294143 13.37427949 117.31328542 15 121 C15.33773437 121.75152344 15.67546875 122.50304687 16.0234375 123.27734375 C17.82603137 127.58537772 18.24306199 130.47977457 17 135 C16.34 135 15.68 135 15 135 C1.71406176 107.70801846 -10.15376358 79.75210106 -21.53173828 51.61962891 C-22.8290261 48.42149303 -24.14355475 45.23123635 -25.46484375 42.04296875 C-26.12345658 40.42491053 -26.78112482 38.80646723 -27.4375 37.1875 C-27.870625 36.15786133 -27.870625 36.15786133 -28.3125 35.10742188 C-29.80871367 31.34338695 -30.41076845 28.85049188 -29 25 C-24.43464451 17.51017041 -9.34534815 0 0 0 Z " fill="#58595B" transform="translate(108,73)"/>
<path d="M0 0 C-1.75 4.875 -1.75 4.875 -4 6 C-6 5.33333333 -8 4.66666667 -10 4 C-15.32647875 3.19906786 -20.54785997 2.8073664 -25.9375 2.8125 C-26.65607178 2.81185547 -27.37464355 2.81121094 -28.11499023 2.81054688 C-36.15013183 2.88719646 -44.05227037 3.88592526 -52 5 C-48.86170993 13.8113529 -45.08426659 22.04093678 -40.84375 30.359375 C-39.1408781 33.70066748 -37.54679162 37.06816469 -36.078125 40.51953125 C-35.14638784 42.6632019 -34.16920121 44.77316979 -33.171875 46.88671875 C-32.51022042 48.32022193 -31.84876382 49.75381652 -31.1875 51.1875 C-30.69721313 52.20457031 -30.69721313 52.20457031 -30.19702148 53.2421875 C-28.22085511 57.58836598 -27.71445633 60.38209732 -29 65 C-29.66 65 -30.32 65 -31 65 C-31.31525635 64.29431885 -31.6305127 63.5886377 -31.95532227 62.86157227 C-33.20304771 60.07002438 -34.45164287 57.27886738 -35.70083618 54.48797607 C-36.27479243 53.20541204 -36.84850299 51.92273802 -37.42196655 50.63995361 C-40.97828749 42.6865845 -44.56506808 34.74837546 -48.203125 26.83203125 C-48.89516087 25.32286278 -49.58713737 23.81366708 -50.27905273 22.30444336 C-51.29261218 20.0939583 -52.30811236 17.88447612 -53.3298645 15.67776489 C-54.2834437 13.61813798 -55.23021333 11.5555018 -56.17578125 9.4921875 C-56.72145752 8.30995605 -57.26713379 7.12772461 -57.8293457 5.90966797 C-59 3 -59 3 -59 0 C-56.93771534 -0.48009262 -54.87516299 -0.95903544 -52.8125 -1.4375 C-51.08966797 -1.83775391 -51.08966797 -1.83775391 -49.33203125 -2.24609375 C-48.23246094 -2.49488281 -47.13289062 -2.74367187 -46 -3 C-45.23171875 -3.19078125 -44.4634375 -3.3815625 -43.671875 -3.578125 C-28.95499023 -5.90184365 -14.30545805 -3.44191472 0 0 Z " fill="#515254" transform="translate(190,62)"/>
<path d="M0 0 C2.22337519 3.33506279 2.75550146 5.77926101 3.5625 9.6875 C3.81128906 10.86699219 4.06007813 12.04648438 4.31640625 13.26171875 C5.94949626 22.1923881 6.2420578 30.86656726 6.25 39.9375 C6.25067474 40.62941437 6.25134949 41.32132874 6.25204468 42.03421021 C6.19414554 79.42244527 -9.21686944 115.02980082 -35 142 C-35.58652344 142.6496875 -36.17304688 143.299375 -36.77734375 143.96875 C-58.08280084 166.71943503 -92.6200105 182.8282289 -123.8203125 184.91796875 C-131.54590387 185.11727762 -139.27285215 185.06811394 -147 185 C-147 184.34 -147 183.68 -147 183 C-146.43418213 182.99589111 -145.86836426 182.99178223 -145.28540039 182.98754883 C-122.86657748 182.70689256 -101.48184393 179.38347486 -81 170 C-80.30583984 169.68659668 -79.61167969 169.37319336 -78.89648438 169.05029297 C-69.21400885 164.62112335 -60.52306486 159.38385439 -52 153 C-51.11699219 152.34128906 -50.23398438 151.68257812 -49.32421875 151.00390625 C-30.43866234 136.40651661 -12.65753804 114.28145038 -6 91 C-5.50231007 89.60334134 -5.00230596 88.20750517 -4.5 86.8125 C-3.11800272 82.61364489 -2.01632057 78.34731561 -0.9375 74.0625 C-0.77507812 73.41837158 -0.61265625 72.77424316 -0.4453125 72.1105957 C0.05543518 70.07783494 0.52757055 68.03951251 1 66 C1.18312744 65.28513428 1.36625488 64.57026855 1.55493164 63.83374023 C3.40540414 55.93348715 3.34875654 48.00423968 3.3125 39.9375 C3.31233887 39.20655121 3.31217773 38.47560242 3.31201172 37.72250366 C3.29707651 27.99714917 2.84390776 18.65476569 0.65625 9.14453125 C0.00058684 6.00281192 -0.11650242 3.19896229 0 0 Z " fill="#19211B" transform="translate(299,120)"/>
<path d="M0 0 C0.66 0 1.32 0 2 0 C4.47002586 5.63165896 5.368684 8.840922 4 15 C-0.26644152 35.79890242 3.68963722 60.98720002 15 79 C15 79.66 15 80.32 15 81 C15.66 81.33 16.32 81.66 17 82 C17.6766726 83.32828326 18.34047289 84.66312072 19 86 C20.47906838 88.1854891 21.97309912 90.34867959 23.5 92.5 C27.78233831 98.53358209 27.78233831 98.53358209 29.09375 101.34375 C29.95447302 103.36285273 29.95447302 103.36285273 33 104 C34.84499398 105.87617698 36.3683599 107.92737609 38 110 C28.58610092 108.29969224 20.05593433 96.69673678 14.77490234 89.27929688 C8.83514759 80.3998587 4.55157402 71.04751748 1 61 C0.68289062 60.10667969 0.36578125 59.21335938 0.0390625 58.29296875 C-6.30580444 38.85003489 -4.8914329 19.50022135 0 0 Z " fill="#4E4E50" transform="translate(62,130)"/>
<path d="M0 0 C0.66 0 1.32 0 2 0 C4.54185519 4.44082872 4.10031458 8.13618906 3 13 C-0.65736437 24.2757732 -0.65736437 24.2757732 -3.484375 27.90625 C-5.64724306 30.89412959 -6.67462483 34.23551931 -7.875 37.6875 C-9.86449541 43.23172791 -12.02288028 48.3580251 -15.1171875 53.3984375 C-16.16091283 54.98712831 -16.16091283 54.98712831 -16 57 C-16.66 57 -17.32 57 -18 57 C-18.144375 57.763125 -18.28875 58.52625 -18.4375 59.3125 C-19 62 -19 62 -20 65 C-22.64 65 -25.28 65 -28 65 C-27.42745975 59.44452704 -25.39561998 55.05253561 -23.02734375 50.078125 C-22.62600723 49.21926697 -22.22467072 48.36040894 -21.81117249 47.4755249 C-20.52685635 44.73038047 -19.23263575 41.99005404 -17.9375 39.25 C-16.25629238 35.67319609 -14.57907056 32.0945312 -12.90234375 28.515625 C-12.49196869 27.64151978 -12.08159363 26.76741455 -11.65878296 25.86682129 C-7.64741644 17.2996325 -3.80251624 8.66154474 0 0 Z " fill="#3E3E40" transform="translate(159,193)"/>
<path d="M0 0 C2.21216217 3.31824326 2.71605614 5.05318041 3 9 C2.109375 12.3828125 2.109375 12.3828125 0.75 16.125 C-6.14080366 36.61765089 -6.54657794 58.36306102 -3.4453125 79.61328125 C-2.89470237 83.80081621 -2.84947525 87.78530713 -3 92 C-4.485 92.495 -4.485 92.495 -6 93 C-10.31646186 81.34555299 -11.36470924 70.26826375 -11.3125 57.875 C-11.31067719 57.18991364 -11.30885437 56.50482727 -11.30697632 55.79898071 C-11.25955435 45.20658104 -10.63110209 35.28521726 -8 25 C-7.71068604 23.85023682 -7.71068604 23.85023682 -7.41552734 22.67724609 C-5.42916527 14.87045365 -3.31962421 7.35335363 0 0 Z " fill="#BFC1C3" transform="translate(28,103)"/>
<path d="M0 0 C3.85871618 0.41715851 7.16548104 1.40409887 10.75 2.8125 C15.78257324 4.6988544 20.82807119 6.01578321 26.0625 7.1875 C26.7937207 7.35419189 27.52494141 7.52088379 28.27832031 7.69262695 C38.0147811 9.80176015 47.62378223 10.16098812 57.5625 10.125 C58.63435547 10.12886719 59.70621094 10.13273437 60.81054688 10.13671875 C66.9573246 10.12919976 72.9056958 9.80575271 79 9 C78.34 9.33 77.68 9.66 77 10 C76.67 10.99 76.34 11.98 76 13 C75.01 13 74.02 13 73 13 C73.99 13.66 74.98 14.32 76 15 C53.02384448 20.28758995 26.51925235 15.257508 5 7 C5 6.34 5 5.68 5 5 C3.68 4.67 2.36 4.34 1 4 C0.67 2.68 0.34 1.36 0 0 Z " fill="#B5B6B9" transform="translate(104,287)"/>
<path d="M0 0 C15.92571347 3.50768879 33.1132634 12.0871257 46 22 C46 22.66 46 23.32 46 24 C46.57621094 24.26039062 47.15242188 24.52078125 47.74609375 24.7890625 C50.16230095 26.08719808 52.00794479 27.5619243 54.0625 29.375 C54.73410156 29.96023437 55.40570313 30.54546875 56.09765625 31.1484375 C57.97541411 32.9760704 59.48949607 34.86364865 61 37 C60.01 37.33 59.02 37.66 58 38 C57.505 38.99 57.505 38.99 57 40 C56.55011719 39.5153125 56.10023438 39.030625 55.63671875 38.53125 C42.84556791 25.20179421 26.23367237 15.51218768 8.9765625 9.15625 C6 8 6 8 3 6 C3.99 5.34 4.98 4.68 6 4 C4.68 3.67 3.36 3.34 2 3 C2 2.34 2 1.68 2 1 C1.34 0.67 0.68 0.34 0 0 Z " fill="#949599" transform="translate(200,22)"/>
<path d="M0 0 C0.33 0 0.66 0 1 0 C1.18175781 0.75023437 1.36351562 1.50046875 1.55078125 2.2734375 C2.34827939 5.52068635 3.16912735 8.76113533 4 12 C4.32484375 13.28777344 4.32484375 13.28777344 4.65625 14.6015625 C6.55399777 21.53737874 9.6385467 27.66527105 13 34 C13.67869141 35.34384766 13.67869141 35.34384766 14.37109375 36.71484375 C17.63378639 43.00916014 21.48255643 48.67321699 25.74902344 54.31787109 C29 58.68862847 29 58.68862847 29 62 C26.04971157 62 23.84482164 61.7851591 21.6171875 59.71484375 C19.94959974 57.54697966 18.47815616 55.30226092 17 53 C16.20327328 51.81240051 15.40638579 50.62490887 14.609375 49.4375 C8.79484835 40.61076062 4.65071525 31.90583485 1 22 C0.47664063 20.8140625 -0.04671875 19.628125 -0.5859375 18.40625 C-1.83428122 15.39918999 -2.61949856 12.75204653 -3.1875 9.5625 C-3.34605469 8.69753906 -3.50460938 7.83257812 -3.66796875 6.94140625 C-3.77753906 6.30074219 -3.88710938 5.66007813 -4 5 C-3.67 5.66 -3.34 6.32 -3 7 C-2.34 6.67 -1.68 6.34 -1 6 C-0.34227572 2.97065509 -0.34227572 2.97065509 0 0 Z " fill="#959699" transform="translate(25,189)"/>
<path d="M0 0 C0 0.33 0 0.66 0 1 C-1.65 1 -3.3 1 -5 1 C-5 1.66 -5 2.32 -5 3 C-5.55945313 3.01417969 -6.11890625 3.02835938 -6.6953125 3.04296875 C-14.69549701 3.51886397 -21.59076503 6.07551696 -29 9 C-30.67642578 9.66128906 -30.67642578 9.66128906 -32.38671875 10.3359375 C-38.22430323 12.70543674 -43.6037532 15.02309639 -48.5 19.0625 C-51 21 -51 21 -53.33984375 21.8828125 C-56.3592923 23.15089221 -58.51860072 24.75614865 -61.0625 26.8125 C-61.89910156 27.47894531 -62.73570313 28.14539063 -63.59765625 28.83203125 C-66.10235744 30.96110306 -66.10235744 30.96110306 -68.12109375 33.76171875 C-68.74113281 34.50035156 -69.36117187 35.23898438 -70 36 C-70.99 36 -71.98 36 -73 36 C-73 36.66 -73 37.32 -73 38 C-73.495 38.474375 -73.99 38.94875 -74.5 39.4375 C-76.34626591 40.99969942 -76.34626591 40.99969942 -76 44 C-79 46 -79 46 -80.89453125 46.7578125 C-83.95634455 48.56422554 -85.5839009 51.03079494 -87.6875 53.875 C-88.47511719 54.92429688 -89.26273438 55.97359375 -90.07421875 57.0546875 C-91.75626914 59.62723516 -92.37877064 61.10304268 -93 64 C-97.14893617 68.57446809 -97.14893617 68.57446809 -100 70 C-98.55906484 64.76244355 -96.19173809 60.83760248 -93.125 56.4375 C-92.6410376 55.74003662 -92.1570752 55.04257324 -91.65844727 54.32397461 C-86.68384031 47.31419234 -81.08752993 41.05375722 -75 35 C-74.19046875 34.19046875 -73.3809375 33.3809375 -72.546875 32.546875 C-65.69975676 26.06251799 -58.01142852 20.9191915 -50 16 C-49.40590332 15.63487305 -48.81180664 15.26974609 -48.19970703 14.89355469 C-36.54397397 7.88263611 -13.75321027 -4.43651944 0 0 Z " fill="#929296" transform="translate(139,25)"/>
<path d="M0 0 C0.33 0.66 0.66 1.32 1 2 C1.63462158 2.22574707 2.26924316 2.45149414 2.9230957 2.68408203 C6.08691383 4.6886641 6.43831171 7.5945882 7.23046875 11.0546875 C7.39927048 11.76454803 7.5680722 12.47440857 7.74198914 13.20578003 C9.48180134 21.17691975 9.47946106 29.00755642 9.3125 37.125 C9.30095949 38.59113294 9.29118908 40.05728089 9.28320312 41.5234375 C9.22701933 47.44188252 9.11093793 53.16631786 8 59 C7.67 59 7.34 59 7 59 C6.67 57.02 6.34 55.04 6 53 C5.01 52.67 4.02 52.34 3 52 C3.01571045 51.20529297 3.0314209 50.41058594 3.04760742 49.59179688 C3.55169869 29.73042038 3.55169869 29.73042038 0.65625 10.1640625 C-0.06162234 6.70289229 -0.10709198 3.52511085 0 0 Z " fill="#B1B2B5" transform="translate(294,123)"/>
<path d="M0 0 C0.66 0 1.32 0 2 0 C2.32274902 0.74685059 2.64549805 1.49370117 2.97802734 2.26318359 C4.43879804 5.63593031 5.90680005 9.00548111 7.375 12.375 C7.88289063 13.550625 8.39078125 14.72625 8.9140625 15.9375 C9.40390625 17.05898437 9.89375 18.18046875 10.3984375 19.3359375 C10.84880371 20.37282715 11.29916992 21.4097168 11.76318359 22.47802734 C12.87653222 25.09221204 12.87653222 25.09221204 15 27 C15.88636263 29.08238399 16.71193257 31.19096482 17.5 33.3125 C18.13421875 35.00826172 18.13421875 35.00826172 18.78125 36.73828125 C19.1834375 37.81464844 19.585625 38.89101562 20 40 C20.58394531 41.34191406 20.58394531 41.34191406 21.1796875 42.7109375 C22.26790141 45.74757251 21.71942305 47.90648087 21 51 C20.34 51 19.68 51 19 51 C15.95319593 44.68822564 12.96430448 38.35090675 10 32 C9.49774902 30.93056152 8.99549805 29.86112305 8.47802734 28.75927734 C6.924254 25.43143041 5.39692239 22.09251681 3.875 18.75 C3.37766357 17.69176025 2.88032715 16.63352051 2.36791992 15.54321289 C-0.18798252 9.86035545 -1.77340597 6.09500692 0 0 Z " fill="#4B4C4E" transform="translate(104,157)"/>
<path d="M0 0 C0.99 0.33 1.98 0.66 3 1 C4.27421592 17.70638655 -2.54712495 33.92628792 -9 49 C-12.875 47.25 -12.875 47.25 -14 45 C-13.21484375 43.171875 -13.21484375 43.171875 -11.9375 40.75 C-9.21387615 34.99843678 -7.47470621 29.13626391 -5.8125 23 C-5.43822876 21.63053223 -5.43822876 21.63053223 -5.05639648 20.23339844 C-3.55411077 14.56451037 -2.38166653 8.90531444 -1.4362793 3.1171875 C-1 1 -1 1 0 0 Z " fill="#C5C7CA" transform="translate(298,174)"/>
<path d="M0 0 C0.495 2.475 0.495 2.475 1 5 C0.45811035 5.15968262 -0.0837793 5.31936523 -0.64208984 5.48388672 C-14.11824172 9.52758359 -25.97439081 14.7024081 -38 22 C-38.33 21.01 -38.66 20.02 -39 19 C-40.98 19.99 -42.96 20.98 -45 22 C-45 21.01 -45 20.02 -45 19 C-34.9350171 10.54625137 -13.3049488 -0.81610281 0 0 Z " fill="#CACBCD" transform="translate(124,22)"/>
<path d="M0 0 C0.33 0 0.66 0 1 0 C1 2.31 1 4.62 1 7 C1.99 6.67 2.98 6.34 4 6 C5.76816762 7.76816762 5.33947447 10.35315436 5.5 12.7578125 C5.5825 13.94117188 5.665 15.12453125 5.75 16.34375 C5.87375 18.21546875 5.87375 18.21546875 6 20.125 C6.52738014 29.11699452 6.52738014 29.11699452 7.55859375 38.05859375 C7.96120993 40.74151397 8.10415149 43.23015294 8.0625 45.9375 C8.05347656 46.70964844 8.04445313 47.48179687 8.03515625 48.27734375 C8.02355469 48.84582031 8.01195312 49.41429687 8 50 C6.515 50.495 6.515 50.495 5 51 C0.54456799 38.97033357 -0.28057619 27.51544228 -0.125 14.8125 C-0.11494179 13.36914689 -0.105821 11.92578694 -0.09765625 10.48242188 C-0.07588691 6.98813606 -0.04151675 3.49411363 0 0 Z " fill="#B2B3B5" transform="translate(17,145)"/>
<path d="M0 0 C2 2 2 2 2 5 C2.99 5.33 3.98 5.66 5 6 C6.36279297 8.60107422 6.36279297 8.60107422 7.7421875 12.0546875 C7.99243683 12.67086945 8.24268616 13.28705139 8.5005188 13.92190552 C9.30251073 15.90222764 10.08923672 17.8881896 10.875 19.875 C11.65402863 21.81845615 12.4362241 23.76059958 13.21995544 25.7021637 C13.733704 26.97618581 14.24499758 28.25120071 14.75379944 29.52720642 C16.69484455 34.36220761 18.86446876 39.05501901 21.1887207 43.71655273 C22.49988531 47.40698985 21.61806514 49.53271756 20 53 C18.01213582 51.01213582 17.3887166 49.86380102 16.35180664 47.31982422 C16.04130875 46.56498749 15.73081085 45.81015076 15.41090393 45.03244019 C15.0806572 44.2147818 14.75041046 43.39712341 14.41015625 42.5546875 C13.89236855 41.2889238 13.89236855 41.2889238 13.36412048 39.99758911 C12.25885495 37.29195949 11.16074858 34.58348436 10.0625 31.875 C9.3266088 30.0727382 8.59028562 28.27065272 7.85351562 26.46875 C7.14284561 24.72671893 6.43254748 22.98453608 5.72265625 21.2421875 C5.23032249 20.033918 5.23032249 20.033918 4.7280426 18.80123901 C4.1070523 17.26930543 3.49064121 15.73550545 2.87942505 14.199646 C2.28912178 12.72316061 1.68461009 11.25228308 1.06661987 9.78717041 C-0.45547558 6.05197545 -1.25095097 3.84976902 0 0 Z " fill="#515254" transform="translate(83,109)"/>
<path d="M0 0 C2.97 0.495 2.97 0.495 6 1 C5.61070313 1.59683594 5.22140625 2.19367188 4.8203125 2.80859375 C1.0343941 8.67938426 -2.61848362 14.62027251 -6.1875 20.625 C-6.60306152 21.31650146 -7.01862305 22.00800293 -7.44677734 22.72045898 C-10.03247667 27.10043307 -12.14521197 31.48925993 -14.0012207 36.22802734 C-15 38 -15 38 -18 39 C-18.5367197 31.53065082 -17.15636029 27.08615784 -13.5 20.625 C-13.05092285 19.80153076 -12.6018457 18.97806152 -12.13916016 18.12963867 C-8.56945002 11.70756737 -4.61042777 5.73083899 0 0 Z " fill="#CECFD1" transform="translate(47,71)"/>
<path d="M0 0 C2.32788086 0.20141602 2.32788086 0.20141602 5 1 C6.51391602 3.06616211 6.51391602 3.06616211 7.75390625 5.77734375 C8.21603516 6.76669922 8.67816406 7.75605469 9.15429688 8.77539062 C9.61900391 9.81888672 10.08371094 10.86238281 10.5625 11.9375 C11.03107422 12.94619141 11.49964844 13.95488281 11.98242188 14.99414062 C20.53576508 33.57224133 20.53576508 33.57224133 21 41 C20.67 41.66 20.34 42.32 20 43 C19.34 43 18.68 43 18 43 C15.7519316 38.00391051 13.51012339 33.00507614 11.27392578 28.00366211 C10.51324694 26.30466184 9.75089998 24.60640735 8.98681641 22.90893555 C7.88518812 20.46079289 6.7897011 18.00997979 5.6953125 15.55859375 C5.3556546 14.80726669 5.0159967 14.05593964 4.66604614 13.28184509 C2.72233502 8.90964137 1.20165947 4.63306486 0 0 Z " fill="#3F3F41" transform="translate(177,165)"/>
<path d="M0 0 C0.99 0.99 0.99 0.99 2 2 C4.10820797 1.6814823 4.10820797 1.6814823 6 1 C6 1.99 6 2.98 6 4 C5.47535156 4.12375 4.95070313 4.2475 4.41015625 4.375 C-14.24688963 9.34193401 -30.15595753 19.76090729 -44 33 C-44.73605469 33.66128906 -45.47210938 34.32257813 -46.23046875 35.00390625 C-54.84346749 43.03762366 -61.99442736 53.34243971 -67 64 C-67.66 63.67 -68.32 63.34 -69 63 C-67.01334905 57.81263364 -64.4647165 53.48507533 -61.3046875 48.91796875 C-59.53373008 46.3145553 -58.71057711 44.04533046 -58 41 C-58 41.66 -58 42.32 -58 43 C-57.01 42.505 -57.01 42.505 -56 42 C-55.67 41.01 -55.34 40.02 -55 39 C-53.29296875 37.3515625 -53.29296875 37.3515625 -51.1875 35.625 C-48.69558226 33.52841324 -46.77155872 31.70810281 -44.75 29.125 C-42.78257589 26.73598501 -41.91126122 26.60232991 -39 26 C-38.67 25.01 -38.34 24.02 -38 23 C-36.33333333 21.66666667 -34.66666667 20.33333333 -33 19 C-32.505 17.515 -32.505 17.515 -32 16 C-31.01 16.33 -30.02 16.66 -29 17 C-26.03933009 15.56357834 -26.03933009 15.56357834 -22.9375 13.5625 C-17.18590998 10 -17.18590998 10 -15 10 C-14.67 9.34 -14.34 8.68 -14 8 C-12.0187415 7.27954236 -10.01495907 6.61998741 -8 6 C-7.113125 5.62875 -6.22625 5.2575 -5.3125 4.875 C-3 4 -3 4 0 4 C0 2.68 0 1.36 0 0 Z " fill="#999A9C" transform="translate(120,41)"/>
<path d="M0 0 C0.99 0.33 1.98 0.66 3 1 C3 1.66 3 2.32 3 3 C3.66 3 4.32 3 5 3 C5.83819158 4.62249941 6.6704116 6.24808497 7.5 7.875 C7.9640625 8.77992188 8.428125 9.68484375 8.90625 10.6171875 C10 13 10 13 10 15 C10.66 15.33 11.32 15.66 12 16 C12.6766726 17.32828326 13.34047289 18.66312072 14 20 C15.47906838 22.1854891 16.97309912 24.34867959 18.5 26.5 C22.78233831 32.53358209 22.78233831 32.53358209 24.09375 35.34375 C24.95447302 37.36285273 24.95447302 37.36285273 28 38 C29.84499398 39.87617698 31.3683599 41.92737609 33 44 C23.58165101 42.29888851 14.95720242 30.64751051 9.7265625 23.18261719 C5.08805332 16.14202289 1.15898327 9.20413642 -1 1 C-0.67 0.67 -0.34 0.34 0 0 Z " fill="#454648" transform="translate(67,196)"/>
<path d="M0 0 C4.009057 0.82003439 5.64217506 1.50121372 8.0625 4.875 C8.73963176 6.23485965 9.381672 7.61241354 10 9 C10.38929688 9.85851562 10.77859375 10.71703125 11.1796875 11.6015625 C13.65727822 17.3107933 15.83440094 23.122616 17.875 29 C18.30554688 30.2375 18.73609375 31.475 19.1796875 32.75 C19.94833204 35.79529647 20.15569367 37.14643537 19 40 C18.34 38.68 17.68 37.36 17 36 C16.01 36 15.02 36 14 36 C12.09724399 32.53026846 10.98916463 28.95844911 9.8125 25.1875 C7.76450403 18.7878104 5.19565573 12.77746273 2.2355957 6.7487793 C0 2.17774575 0 2.17774575 0 0 Z " fill="#A0A1A4" transform="translate(280,90)"/>
<path d="M0 0 C0.33 0 0.66 0 1 0 C0.93143799 0.69295166 0.86287598 1.38590332 0.79223633 2.09985352 C-1.49998344 27.03518246 -1.27546113 51.72366738 7.94921875 75.28515625 C8.81685028 77.52680649 9.48871687 79.65708721 10 82 C8.16015625 81.4609375 8.16015625 81.4609375 6 80 C4.94678436 77.49973171 4.15360295 75.21982713 3.4375 72.625 C3.12280762 71.54677979 3.12280762 71.54677979 2.80175781 70.44677734 C2.18310386 68.30245984 1.58863584 66.15272536 1 64 C0.68675781 62.88625 0.37351562 61.7725 0.05078125 60.625 C-2.80033325 49.94375152 -3.16455635 39.51221631 -3.13037109 28.49536133 C-3.12500023 26.43758816 -3.13035326 24.3800323 -3.13671875 22.32226562 C-3.14145279 15.49423521 -3.13754265 8.74605992 -2 2 C-1.34 1.34 -0.68 0.68 0 0 Z " fill="#0C110C" transform="translate(18,133)"/>
<path d="M0 0 C10.1643352 2.20963809 27.1045305 7.15679574 33 16 C33.66 16.33 34.32 16.66 35 17 C35 17.66 35 18.32 35 19 C29.24913353 18.50706859 25.17149251 16.85020328 20.125 14.125 C14.51117744 11.1960491 9.11179153 8.74622615 3 7 C3.99 6.01 4.98 5.02 6 4 C4.68 3.67 3.36 3.34 2 3 C2 2.34 2 1.68 2 1 C1.34 0.67 0.68 0.34 0 0 Z " fill="#9C9DA0" transform="translate(200,22)"/>
<path d="M0 0 C-3.59681562 2.39787708 -5.83983489 2.45755847 -10.125 2.875 C-31.56523045 5.30513629 -53.73541136 11.89527236 -71.5 24.4375 C-72.7375 25.2109375 -72.7375 25.2109375 -74 26 C-74.99 25.67 -75.98 25.34 -77 25 C-54.29524532 8.75594787 -28.00893343 -0.20370133 0 0 Z " fill="#0B120B" transform="translate(155,15)"/>
<path d="M0 0 C8.10004653 0.45370936 17.91337353 2.36504234 24.25 7.5625 C25.735 8.0575 25.735 8.0575 27.25 8.5625 C26.59 9.2225 25.93 9.8825 25.25 10.5625 C18.30920009 10.20957797 11.59900904 8.66296213 4.8046875 7.26171875 C0.95290787 6.504061 -2.84725986 5.96073879 -6.75 5.5625 C-5.20329517 1.4379538 -4.44392192 0.66658829 0 0 Z " fill="#ACADAF" transform="translate(179.75,17.4375)"/>
<path d="M0 0 C0.99 0.33 1.98 0.66 3 1 C2.59723329 7.08079496 -0.27127002 11.29561464 -3.4375 16.3125 C-3.94087891 17.13556641 -4.44425781 17.95863281 -4.96289062 18.80664062 C-8.72096346 24.86048173 -8.72096346 24.86048173 -11 26 C-11.99 25.01 -12.98 24.02 -14 23 C-11.87750598 18.66415177 -9.44337831 14.53572421 -7 10.375 C-6.54882812 9.59898437 -6.09765625 8.82296875 -5.6328125 8.0234375 C-4.97925781 6.9096875 -4.97925781 6.9096875 -4.3125 5.7734375 C-3.91675781 5.09716309 -3.52101563 4.42088867 -3.11328125 3.72412109 C-2 2 -2 2 0 0 Z " fill="#CDCECF" transform="translate(285,220)"/>
<path d="M0 0 C-0.33 1.65 -0.66 3.3 -1 5 C-3.06152389 5.64894237 -5.12426258 6.2940264 -7.1875 6.9375 C-8.33605469 7.29714844 -9.48460937 7.65679687 -10.66796875 8.02734375 C-15.23333202 9.36002306 -19.42864665 10.16360629 -24.1875 10.25 C-25.47720703 10.28867187 -25.47720703 10.28867187 -26.79296875 10.328125 C-27.52128906 10.21984375 -28.24960938 10.1115625 -29 10 C-29.66 9.01 -30.32 8.02 -31 7 C-30.236875 7.226875 -29.47375 7.45375 -28.6875 7.6875 C-27.3571875 7.8421875 -27.3571875 7.8421875 -26 8 C-25.32336304 7.3179248 -25.32336304 7.3179248 -24.63305664 6.62207031 C-22.59340105 4.59613643 -20.93740685 4.14223244 -18.18359375 3.359375 C-17.25482422 3.09382813 -16.32605469 2.82828125 -15.36914062 2.5546875 C-14.40169922 2.28914063 -13.43425781 2.02359375 -12.4375 1.75 C-11.46619141 1.46898437 -10.49488281 1.18796875 -9.49414062 0.8984375 C-2.26326769 -1.13163385 -2.26326769 -1.13163385 0 0 Z " fill="#BFC0C3" transform="translate(206,291)"/>
<path d="M0 0 C0.80961182 0.0100708 1.61922363 0.0201416 2.45336914 0.03051758 C4.86523939 0.06927681 7.27609055 0.12703542 9.6875 0.1875 C10.88632813 0.20554687 12.08515625 0.22359375 13.3203125 0.2421875 C24.4927281 0.69119711 37.56632616 3.15561206 47.6875 8.1875 C48.3475 9.1775 49.0075 10.1675 49.6875 11.1875 C47.13033795 10.74912936 44.83788741 10.25016142 42.4375 9.25 C39.34729618 8.05605761 36.31067458 7.3707945 33.07421875 6.69140625 C31.53069214 6.36552256 29.99104848 6.02040042 28.45703125 5.65234375 C18.94212341 3.3788702 9.30856713 3.00318708 -0.4375 2.625 C-1.489375 2.58181641 -2.54125 2.53863281 -3.625 2.49414062 C-6.18740627 2.38931491 -8.74988799 2.28714645 -11.3125 2.1875 C-7.49409797 -0.35810135 -4.41876065 -0.07537429 0 0 Z " fill="#222A24" transform="translate(163.3125,14.8125)"/>
<path d="M0 0 C0.66 0 1.32 0 2 0 C4.29648649 2.5614657 5 3.47967572 5 7 C5.66 7 6.32 7 7 7 C10.34846883 13.0297151 12.75170226 18.04766338 13 25 C12.67 25.66 12.34 26.32 12 27 C11.34 27 10.68 27 10 27 C8.50148763 24.0092962 7.02990829 21.00607162 5.5625 18 C5.14162109 17.16082031 4.72074219 16.32164062 4.28710938 15.45703125 C1.7382808 10.19624908 0.37195392 5.84305791 0 0 Z " fill="#414143" transform="translate(113,181)"/>
<path d="M0 0 C0.66 0.33 1.32 0.66 2 1 C-7.68564598 14.89026749 -22.38617858 33.46205953 -39 39 C-39 38.01 -39 37.02 -39 36 C-36.90817305 34.33015543 -34.84814263 32.84978336 -32.625 31.375 C-19.96010628 22.63635107 -9.67489948 11.93237603 0 0 Z " fill="#141B15" transform="translate(276,244)"/>
<path d="M0 0 C0.33 0 0.66 0 1 0 C1.18175781 0.75023437 1.36351562 1.50046875 1.55078125 2.2734375 C2.99492256 8.15368467 4.53367482 13.96990227 6.3515625 19.74609375 C7.04201033 22.14602387 7.54126196 24.54618427 8 27 C7.01 27.33 6.02 27.66 5 28 C5 27.34 5 26.68 5 26 C4.34 26 3.68 26 3 26 C-0.44370445 19.08630327 -2.88667981 12.66030756 -4 5 C-3.67 5.66 -3.34 6.32 -3 7 C-2.34 6.67 -1.68 6.34 -1 6 C-0.34227572 2.97065509 -0.34227572 2.97065509 0 0 Z " fill="#A2A4A7" transform="translate(25,189)"/>
<path d="M0 0 C4.03425643 0.43613583 7.54091525 1.51256138 11.3125 2.9375 C16.17344117 4.76867647 20.90688201 5.99807515 26 7 C25.10751751 9.30557978 24.56622618 10.6885756 22.359375 11.90234375 C18.73834102 12.05222098 15.6054361 10.77718056 12.25 9.5625 C11.55261719 9.31951172 10.85523437 9.07652344 10.13671875 8.82617188 C8.42114902 8.22689752 6.71010285 7.61470115 5 7 C5 6.34 5 5.68 5 5 C3.68 4.67 2.36 4.34 1 4 C0.67 2.68 0.34 1.36 0 0 Z " fill="#A5A6A9" transform="translate(104,287)"/>
<path d="M0 0 C0.99 0.33 1.98 0.66 3 1 C3 1.66 3 2.32 3 3 C3.66 3 4.32 3 5 3 C5.83819158 4.62249941 6.6704116 6.24808497 7.5 7.875 C7.9640625 8.77992188 8.428125 9.68484375 8.90625 10.6171875 C10 13 10 13 10 15 C10.66 15.33 11.32 15.66 12 16 C12 17.32 12 18.64 12 20 C9.7734375 19.9921875 9.7734375 19.9921875 7 19 C5.13566838 16.57343415 3.9097621 13.89180977 2.625 11.125 C2.07392578 10.02478516 2.07392578 10.02478516 1.51171875 8.90234375 C-1.13778832 3.41336496 -1.13778832 3.41336496 0 0 Z " fill="#404042" transform="translate(67,196)"/>
<path d="M0 0 C0.144375 0.61875 0.28875 1.2375 0.4375 1.875 C0.93152225 4.03258322 0.93152225 4.03258322 2 6 C2.66 6 3.32 6 4 6 C4.23268915 12.28260706 3.40454548 17.88019467 2 24 C0.68 24 -0.64 24 -2 24 C-2.23658921 15.73252149 -1.81344335 8.07953776 0 0 Z " fill="#B9BBBD" transform="translate(20,128)"/>
<path d="M0 0 C1.64925924 0.06585064 3.29574522 0.2046075 4.9375 0.375 C5.92234375 0.47425781 6.9071875 0.57351563 7.921875 0.67578125 C8.93765625 0.78277344 9.9534375 0.88976562 11 1 C12.89577657 1.18807307 14.79160555 1.37561898 16.6875 1.5625 C18.12505197 1.70782018 19.56257278 1.85345102 21 2 C20.360625 2.45375 19.72125 2.9075 19.0625 3.375 C16.90297594 4.83921726 16.90297594 4.83921726 16 7 C10.63108121 6.50130596 5.30764827 5.97772468 0 5 C-0.5625 3.0625 -0.5625 3.0625 -1 1 C-0.67 0.67 -0.34 0.34 0 0 Z " fill="#B1B1B4" transform="translate(128,295)"/>
<path d="M0 0 C0.99 0.33 1.98 0.66 3 1 C3.2494783 8.29031024 2.72330907 14.90673679 1 22 C-1 19 -1 19 -1 17 C-1.66 17 -2.32 17 -3 17 C-3.33 17.66 -3.66 18.32 -4 19 C-3.42543058 14.69072935 -2.74822782 10.40776673 -2 6.125 C-1.835 5.17882812 -1.67 4.23265625 -1.5 3.2578125 C-1 1 -1 1 0 0 Z " fill="#BEBEC0" transform="translate(298,174)"/>
<path d="M0 0 C0.66 1.32 1.32 2.64 2 4 C1.01 4.33 0.02 4.66 -1 5 C-1.66 5.66 -2.32 6.32 -3 7 C-3.99 6.67 -4.98 6.34 -6 6 C-6.04125 6.598125 -6.0825 7.19625 -6.125 7.8125 C-7 10 -7 10 -10.0625 11.75 C-11.5165625 12.36875 -11.5165625 12.36875 -13 13 C-13 14.32 -13 15.64 -13 17 C-14.0209375 17.2475 -14.0209375 17.2475 -15.0625 17.5 C-19.39632353 19.71301627 -21.97802936 23.25519489 -25 27 C-25.33 26.34 -25.66 25.68 -26 25 C-17.32073434 13.36609071 -17.32073434 13.36609071 -12 9 C-11.34 9 -10.68 9 -10 9 C-10 8.34 -10 7.68 -10 7 C-7.8125 5.2734375 -7.8125 5.2734375 -5 3.375 C-4.071875 2.74335937 -3.14375 2.11171875 -2.1875 1.4609375 C-1.465625 0.97882813 -0.74375 0.49671875 0 0 Z " fill="#8B8C8E" transform="translate(110,79)"/>
<path d="M0 0 C5.75 3.625 5.75 3.625 8 7 C8.99 7 9.98 7 11 7 C10.67 8.65 10.34 10.3 10 12 C10.763125 12.268125 11.52625 12.53625 12.3125 12.8125 C14.95915172 13.98195076 16.29555616 14.69900082 18 17 C18.6875 19.6875 18.6875 19.6875 19 22 C15.10635235 19.89236647 12.46467253 17.58154921 9.5625 14.25 C8.79164063 13.37085937 8.02078125 12.49171875 7.2265625 11.5859375 C6.12441406 10.30589844 6.12441406 10.30589844 5 9 C4.05253906 7.90558594 4.05253906 7.90558594 3.0859375 6.7890625 C1.71657146 5.19904032 0.35701224 3.60057854 -1 2 C-0.67 1.34 -0.34 0.68 0 0 Z " fill="#454547" transform="translate(239,65)"/>
<path d="M0 0 C0.78375 0.165 1.5675 0.33 2.375 0.5 C4.88208039 1.0623707 4.88208039 1.0623707 7 1 C7 0.67 7 0.34 7 0 C8.65 0 10.3 0 12 0 C12.83848804 1.45537568 13.67063934 2.91440373 14.5 4.375 C14.9640625 5.18710938 15.428125 5.99921875 15.90625 6.8359375 C17 9 17 9 17 11 C13.09544063 9.57497833 9.75164038 7.73347873 6.25 5.5 C5.28578125 4.8915625 4.3215625 4.283125 3.328125 3.65625 C1 2 1 2 0 0 Z " fill="#49494B" transform="translate(100,241)"/>
<path d="M0 0 C1.8253125 0.0309375 1.8253125 0.0309375 3.6875 0.0625 C3.6875 0.3925 3.6875 0.7225 3.6875 1.0625 C0.0575 1.3925 -3.5725 1.7225 -7.3125 2.0625 C-7.6425 3.0525 -7.9725 4.0425 -8.3125 5.0625 C-8.3125 4.4025 -8.3125 3.7425 -8.3125 3.0625 C-9.6325 3.0625 -10.9525 3.0625 -12.3125 3.0625 C-11.9825 4.7125 -11.6525 6.3625 -11.3125 8.0625 C-12.76885371 8.28424933 -14.22772956 8.48948698 -15.6875 8.6875 C-16.49960938 8.80351562 -17.31171875 8.91953125 -18.1484375 9.0390625 C-18.86257812 9.04679687 -19.57671875 9.05453125 -20.3125 9.0625 C-20.9725 8.4025 -21.6325 7.7425 -22.3125 7.0625 C-21.9825 6.0725 -21.6525 5.0825 -21.3125 4.0625 C-18.765625 3.1484375 -18.765625 3.1484375 -15.5625 2.4375 C-13.99242187 2.07785156 -13.99242187 2.07785156 -12.390625 1.7109375 C-11.37484375 1.49695313 -10.3590625 1.28296875 -9.3125 1.0625 C-8.44753906 0.87042969 -7.58257812 0.67835937 -6.69140625 0.48046875 C-4.40060728 0.07798026 -2.32124436 -0.03934312 0 0 Z " fill="#A8A9AA" transform="translate(145.3125,16.9375)"/>
<path d="M0 0 C0.66 0.66 1.32 1.32 2 2 C4.10820797 1.6814823 4.10820797 1.6814823 6 1 C6 1.99 6 2.98 6 4 C5.47535156 4.12375 4.95070312 4.2475 4.41015625 4.375 C-6.17985551 7.1943043 -16.75736467 12.07107713 -25.9375 18.0625 C-26.948125 18.701875 -27.95875 19.34125 -29 20 C-29.66 19.67 -30.32 19.34 -31 19 C-17.63106796 10 -17.63106796 10 -15 10 C-14.67 9.34 -14.34 8.68 -14 8 C-12.0187415 7.27954236 -10.01495907 6.61998741 -8 6 C-6.6696875 5.443125 -6.6696875 5.443125 -5.3125 4.875 C-3 4 -3 4 0 4 C0 2.68 0 1.36 0 0 Z " fill="#909193" transform="translate(120,41)"/>
<path d="M0 0 C1.98 0.99 3.96 1.98 6 3 C3.12533088 7.68001688 -0.04296471 11.22003897 -4.125 14.875 C-4.66253906 15.37257813 -5.20007813 15.87015625 -5.75390625 16.3828125 C-9.7387749 20 -9.7387749 20 -12 20 C-11.505 18.515 -11.505 18.515 -11 17 C-10.34 16.67 -9.68 16.34 -9 16 C-8.3503125 14.824375 -8.3503125 14.824375 -7.6875 13.625 C-6 11 -6 11 -3.375 9.6875 C-0.85313302 8.27154853 -0.85313302 8.27154853 -0.45703125 6.0390625 C-0.21442404 4.03491599 -0.09916427 2.01634023 0 0 Z " fill="#434346" transform="translate(257,248)"/>
<path d="M0 0 C0.33 0 0.66 0 1 0 C0.93941406 0.59941406 0.87882812 1.19882813 0.81640625 1.81640625 C-0.20413161 12.85391575 -0.56231926 23.92709949 -1 35 C-3 33 -3 33 -3.24291992 30.89624023 C-3.23881104 30.04231689 -3.23470215 29.18839355 -3.23046875 28.30859375 C-3.22853516 27.36306641 -3.22660156 26.41753906 -3.22460938 25.44335938 C-3.21236328 24.45142578 -3.20011719 23.45949219 -3.1875 22.4375 C-3.18685547 21.47263672 -3.18621094 20.50777344 -3.18554688 19.51367188 C-3.08571459 3.08571459 -3.08571459 3.08571459 0 0 Z " fill="#232B25" transform="translate(18,133)"/>
<path d="M0 0 C0.66 0.66 1.32 1.32 2 2 C1.443125 3.0725 0.88625 4.145 0.3125 5.25 C-3.14891485 12.1851919 -6.70168505 19.31397548 -8 27 C-8.33333333 28.66666667 -8.66666667 30.33333333 -9 32 C-9.66 32 -10.32 32 -11 32 C-11.66 33.32 -12.32 34.64 -13 36 C-11.98406538 29.11422088 -10.00859298 22.82606215 -7.625 16.3125 C-7.33294678 15.50514404 -7.04089355 14.69778809 -6.73999023 13.8659668 C-4.89659047 8.93250421 -2.73573886 4.50131481 0 0 Z " fill="#86878B" transform="translate(38,95)"/>
<path d="M0 0 C0.99 0.33 1.98 0.66 3 1 C2.67 2.65 2.34 4.3 2 6 C2.99 5.67 3.98 5.34 5 5 C4.63165987 7.65204896 4.3132309 8.73840056 2.22265625 10.484375 C1.50980469 10.90203125 0.79695312 11.3196875 0.0625 11.75 C-1.00291016 12.39195312 -1.00291016 12.39195312 -2.08984375 13.046875 C-4 14 -4 14 -6 14 C-4.50829734 9.0276578 -2.39542583 4.58154261 0 0 Z " fill="#3C3C3E" transform="translate(209,238)"/>
<path d="M0 0 C-1.30507154 2.73698833 -2.74869579 5.20336378 -4.49609375 7.6796875 C-4.97240234 8.36160156 -5.44871094 9.04351562 -5.93945312 9.74609375 C-6.93318085 11.15830134 -7.9279624 12.56976802 -8.92382812 13.98046875 C-11.63432897 17.86515417 -14.00399098 21.68320762 -16 26 C-16.66 25.67 -17.32 25.34 -18 25 C-16.01334905 19.81263364 -13.4647165 15.48507533 -10.3046875 10.91796875 C-8.53373008 8.3145553 -7.71057711 6.04533046 -7 3 C-7 3.66 -7 4.32 -7 5 C-6.34 4.67 -5.68 4.34 -5 4 C-4.67 3.01 -4.34 2.02 -4 1 C-2 0 -2 0 0 0 Z " fill="#929394" transform="translate(69,79)"/>
<path d="M0 0 C0.66 0.33 1.32 0.66 2 1 C1.54177532 4.46941546 1.10868317 7.67395049 0 11 C-1.64821244 12.03013277 -3.31503702 13.03114628 -5 14 C-5.33 14.66 -5.66 15.32 -6 16 C-6.66 16 -7.32 16 -8 16 C-7.05495926 14.03116513 -6.07019873 12.11630712 -4.94140625 10.24609375 C-3.90572701 8.52951812 -2.94852904 6.76622649 -2 5 C-2.33 4.34 -2.66 3.68 -3 3 C-2.01 2.01 -1.02 1.02 0 0 Z M-9 16 C-7.515 16.99 -7.515 16.99 -6 18 C-6.99 18.66 -7.98 19.32 -9 20 C-9 18.68 -9 17.36 -9 16 Z " fill="#BDBDBF" transform="translate(253,203)"/>
<path d="M0 0 C1.5625 1.125 1.5625 1.125 3 3 C2.86876473 6.14964647 2.50788877 8.23816685 0.75 10.875 C-1.58213386 12.37422891 -3.28371825 12.22023906 -6 12 C-4.43358249 7.69235185 -2.31663844 3.93828536 0 0 Z " fill="#C8C9CA" transform="translate(41,79)"/>
<path d="M0 0 C2.97 0.495 2.97 0.495 6 1 C6.17835515 5.54805635 5.99785435 8.8794254 4 13 C3.34 12.67 2.68 12.34 2 12 C1.66666667 10 1.33333333 8 1 6 C0.34 5.67 -0.32 5.34 -1 5 C-0.67 3.35 -0.34 1.7 0 0 Z " fill="#D0D1D3" transform="translate(249,128)"/>
<path d="M0 0 C2.2819602 0.30426136 3.81190144 0.87907949 5.75 2.125 C7.66497267 4.99745901 7.18991495 7.64483583 7 11 C5.65555841 10.09970429 4.32468562 9.17911978 3 8.25 C2.2575 7.73953125 1.515 7.2290625 0.75 6.703125 C0.1725 6.14109375 -0.405 5.5790625 -1 5 C-1 1 -1 1 0 0 Z " fill="#8C8E91" transform="translate(66,263)"/>
<path d="M0 0 C0.33 0.99 0.66 1.98 1 3 C-0.29724542 5.21189311 -1.61130977 7.19543492 -3.125 9.25 C-3.53935303 9.82903076 -3.95370605 10.40806152 -4.38061523 11.00463867 C-5.57867647 12.67601962 -6.78883936 14.33810231 -8 16 C-9.02213394 17.43657549 -10.04331807 18.87382869 -11.0625 20.3125 C-11.701875 21.199375 -12.34125 22.08625 -13 23 C-13.66 22.67 -14.32 22.34 -15 22 C-13.44319127 19.4546933 -11.87981445 16.91382709 -10.3125 14.375 C-9.87744141 13.66214844 -9.44238281 12.94929688 -8.99414062 12.21484375 C-6.27959601 7.83135689 -3.39686221 3.88037953 0 0 Z " fill="#0A110B" transform="translate(47,68)"/>
<path d="M0 0 C0 0.33 0 0.66 0 1 C-1.65 1 -3.3 1 -5 1 C-5 1.66 -5 2.32 -5 3 C-5.92619141 3.05607422 -5.92619141 3.05607422 -6.87109375 3.11328125 C-12.30250618 3.53489774 -16.93163008 4.44113534 -21.9921875 6.4765625 C-24.35154803 7.09164871 -25.71585434 6.76821042 -28 6 C-23.02882893 3.74155674 -18.16856128 2.07088864 -12.875 0.75 C-11.84052734 0.4715625 -11.84052734 0.4715625 -10.78515625 0.1875 C-6.85768117 -0.80375566 -3.90338171 -1.18468394 0 0 Z " fill="#787B7D" transform="translate(139,25)"/>
<path d="M0 0 C0.99 0.33 1.98 0.66 3 1 C0.54819969 3.89608627 -1.80467574 4.82619476 -5.375 6 C-9.27680741 7.28985369 -12.49684807 8.86278294 -16 11 C-18.8125 11.6875 -18.8125 11.6875 -21 12 C-18.92660359 9.7512576 -17.02167356 8.33076735 -14.27734375 6.9921875 C-13.57416016 6.64542969 -12.87097656 6.29867187 -12.14648438 5.94140625 C-11.41751953 5.58949219 -10.68855469 5.23757812 -9.9375 4.875 C-9.20466797 4.51535156 -8.47183594 4.15570313 -7.71679688 3.78515625 C-5.81357954 2.85189816 -3.90700696 1.92548978 -2 1 C-1.34 0.67 -0.68 0.34 0 0 Z " fill="#848589" transform="translate(109,31)"/>
<path d="M0 0 C0.33 1.65 0.66 3.3 1 5 C-2.3 5.66 -5.6 6.32 -9 7 C-9.33 5.35 -9.66 3.7 -10 2 C-6.49223216 0.39644899 -3.85645121 -0.22036864 0 0 Z " fill="#BFC2C1" transform="translate(124,22)"/>
<path d="M0 0 C0.66 0.66 1.32 1.32 2 2 C1.80944634 4.85830484 0.97144591 6.03426491 -0.875 8.25 C-3 10 -3 10 -6 10 C-6.375 7.8125 -6.375 7.8125 -6 5 C-4.16038352 3.00977164 -2.20813852 1.61010101 0 0 Z " fill="#D8D9DB" transform="translate(263,253)"/>
<path d="M0 0 C4.20532472 1.52394795 6.25004166 4.6152865 8.75 8.125 C9.36681641 8.96998047 9.36681641 8.96998047 9.99609375 9.83203125 C11.00476085 11.21601634 12.00339286 12.60730541 13 14 C12.01 14.33 11.02 14.66 10 15 C9.67 14.01 9.34 13.02 9 12 C8.34 12 7.68 12 7 12 C5.2734375 9.8828125 5.2734375 9.8828125 3.375 7.125 C2.74335937 6.22007812 2.11171875 5.31515625 1.4609375 4.3828125 C0 2 0 2 0 0 Z " fill="#141B16" transform="translate(40,241)"/>
<path d="M0 0 C0.57105469 0.21785156 1.14210938 0.43570313 1.73046875 0.66015625 C-0.26953125 2.66015625 -0.26953125 2.66015625 -2.53125 3.52734375 C-5.78040168 4.87150065 -8.26799829 6.68310753 -11.08203125 8.78515625 C-12.05785156 9.50960937 -13.03367187 10.2340625 -14.0390625 10.98046875 C-14.77511719 11.53476562 -15.51117188 12.0890625 -16.26953125 12.66015625 C-16.92953125 12.33015625 -17.58953125 12.00015625 -18.26953125 11.66015625 C-14.50960396 8.30022123 -10.70143275 5.13488214 -6.58203125 2.22265625 C-5.85628906 1.70832031 -5.13054687 1.19398437 -4.3828125 0.6640625 C-2.26953125 -0.33984375 -2.26953125 -0.33984375 0 0 Z " fill="#8B8C90" transform="translate(88.26953125,43.33984375)"/>
<path d="M0 0 C1.98 0.495 1.98 0.495 4 1 C4.12375 1.556875 4.2475 2.11375 4.375 2.6875 C4.9677119 5.07752696 4.9677119 5.07752696 6.0625 7.5625 C7 10 7 10 7 13 C6.34 13 5.68 13 5 13 C3.45703125 10.91796875 3.45703125 10.91796875 1.8125 8.1875 C0.98685547 6.84751953 0.98685547 6.84751953 0.14453125 5.48046875 C-1 3 -1 3 0 0 Z " fill="#404042" transform="translate(259,87)"/>
<path d="M0 0 C0.99 0.33 1.98 0.66 3 1 C2.01 1.33 1.02 1.66 0 2 C0 2.66 0 3.32 0 4 C-1.66666667 5.66666667 -3.33333333 7.33333333 -5 9 C-5.33 9.7425 -5.66 10.485 -6 11.25 C-7 13 -7 13 -9.625 13.75 C-10.40875 13.8325 -11.1925 13.915 -12 14 C-12 11 -12 11 -10.390625 9.31640625 C-9.68421875 8.73761719 -8.9778125 8.15882813 -8.25 7.5625 C-5.36411291 5.14736045 -2.6096521 2.71838761 0 0 Z " fill="#3B3B3D" transform="translate(250,240)"/>
<path d="M0 0 C1.65 0 3.3 0 5 0 C2.69281189 4.28477792 0.67033927 7.72291137 -3 11 C-3.99 10.01 -4.98 9.02 -6 8 C-5.01 7.67 -4.02 7.34 -3 7 C-1.79117904 4.99983534 -1.79117904 4.99983534 -1 3 C-0.34 3 0.32 3 1 3 C0.67 2.01 0.34 1.02 0 0 Z " fill="#C9C9CC" transform="translate(256,225)"/>
<path d="M0 0 C0.66 0.33 1.32 0.66 2 1 C1.3503125 2.04800781 1.3503125 2.04800781 0.6875 3.1171875 C0.130625 4.02726562 -0.42625 4.93734375 -1 5.875 C-1.556875 6.77992187 -2.11375 7.68484375 -2.6875 8.6171875 C-4.16082329 10.83857467 -4.16082329 10.83857467 -4 13 C-8.31818182 17.65909091 -8.31818182 17.65909091 -11 19 C-9.60318936 13.9499923 -7.40056078 10.30405582 -4.375 6.125 C-3.95476563 5.53203125 -3.53453125 4.9390625 -3.1015625 4.328125 C-2.07434578 2.88068326 -1.0380937 1.43966081 0 0 Z " fill="#898A8E" transform="translate(50,76)"/>
<path d="M0 0 C3.79594409 0.57933543 5.76028149 2.25683879 8.5625 4.8125 C9.70912109 5.84310547 9.70912109 5.84310547 10.87890625 6.89453125 C12.82166079 8.82297452 14.42798008 10.7650196 16 13 C15.67 13.66 15.34 14.32 15 15 C14.41992188 14.39671875 13.83984375 13.7934375 13.2421875 13.171875 C8.21357274 7.92280559 8.21357274 7.92280559 2.4375 3.5625 C1.633125 3.046875 0.82875 2.53125 0 2 C0 1.34 0 0.68 0 0 Z " fill="#111813" transform="translate(246,44)"/>
<path d="M0 0 C0.66 0.33 1.32 0.66 2 1 C1.55269531 1.70125 1.10539063 2.4025 0.64453125 3.125 C-2.92973257 8.73407926 -6.4845049 14.3539018 -10 20 C-10.66 19.01 -11.32 18.02 -12 17 C-11.07767578 15.78763672 -11.07767578 15.78763672 -10.13671875 14.55078125 C-9.32018287 13.47145222 -8.50378389 12.39201962 -7.6875 11.3125 C-7.28337891 10.78205078 -6.87925781 10.25160156 -6.46289062 9.70507812 C-4.09911358 6.57259309 -1.95169412 3.40441143 0 0 Z " fill="#D1D1D3" transform="translate(250,207)"/>
<path d="M0 0 C0.66 0 1.32 0 2 0 C2.53394179 1.4117783 3.05165104 2.82970244 3.5625 4.25 C3.85253906 5.03890625 4.14257812 5.8278125 4.44140625 6.640625 C5.04522837 9.19103452 4.8473932 10.55322229 4 13 C3.34 11.68 2.68 10.36 2 9 C1.01 9 0.02 9 -1 9 C-1.33 9 -1.66 9 -2 9 C-2 7.02 -2 5.04 -2 3 C-1.34 3 -0.68 3 0 3 C0 2.01 0 1.02 0 0 Z " fill="#9C9C9F" transform="translate(295,117)"/>
<path d="M0 0 C4.99923125 1.32332592 8.39786925 4.60768155 11 9 C10.67 9.99 10.34 10.98 10 12 C6.15216516 8.93922229 2.85267377 6.05957421 0 2 C0 1.34 0 0.68 0 0 Z " fill="#474749" transform="translate(231,90)"/>
<path d="M0 0 C0.12375 0.639375 0.2475 1.27875 0.375 1.9375 C0.684375 2.9584375 0.684375 2.9584375 1 4 C1.66 4.33 2.32 4.66 3 5 C0.03 7.475 0.03 7.475 -3 10 C-3.12375 9.360625 -3.2475 8.72125 -3.375 8.0625 C-3.684375 7.0415625 -3.684375 7.0415625 -4 6 C-4.66 5.67 -5.32 5.34 -6 5 C-4.02 3.35 -2.04 1.7 0 0 Z " fill="#CDCED1" transform="translate(256,259)"/>
<path d="M0 0 C0 0.99 0 1.98 0 3 C-1.66279327 4.0064275 -3.32983484 5.00585407 -5 6 C-6.32793606 8.06700655 -6.32793606 8.06700655 -7 10 C-7.99 10 -8.98 10 -10 10 C-10 9.34 -10 8.68 -10 8 C-10.66 7.67 -11.32 7.34 -12 7 C-10.75627811 6.01287122 -9.50472782 5.03560095 -8.25 4.0625 C-7.55390625 3.51722656 -6.8578125 2.97195312 -6.140625 2.41015625 C-4.03907872 1.02574346 -2.45678201 0.43713013 0 0 Z " fill="#C7C7C9" transform="translate(228,237)"/>
<path d="M0 0 C0.66 0.66 1.32 1.32 2 2 C1.94140625 3.875 1.94140625 3.875 1.5625 6 C0.94303456 9.10060539 0.94303456 9.10060539 2 12 C1.01 12.495 1.01 12.495 0 13 C-0.66 13.99 -1.32 14.98 -2 16 C-3.13314263 11.89517207 -2.78328091 9.24049263 -1.5625 5.1875 C-1.27503906 4.21167969 -0.98757813 3.23585937 -0.69140625 2.23046875 C-0.46324219 1.49441406 -0.23507812 0.75835937 0 0 Z " fill="#C5C6C8" transform="translate(259,180)"/>
<path d="M0 0 C-0.33 1.32 -0.66 2.64 -1 4 C-4.3 4.33 -7.6 4.66 -11 5 C-10.67 3.68 -10.34 2.36 -10 1 C-6.59437148 0.22157062 -3.49234244 -0.09978121 0 0 Z " fill="#C6C7CA" transform="translate(143,19)"/>
<path d="M0 0 C3 5.75 3 5.75 3 8 C-0.45925163 6.7508258 -3.14693203 5.32472205 -6 3 C-4.60722783 0.21445565 -3.01148006 0 0 0 Z " fill="#505153" transform="translate(114,244)"/>
<path d="M0 0 C3.33329739 1.17115854 5.86405627 2.11647596 8 5 C8.6875 7.6875 8.6875 7.6875 9 10 C5.02743602 7.90336901 2.56101511 5.69924405 0 2 C0 1.34 0 0.68 0 0 Z " fill="#3E3E40" transform="translate(249,77)"/>
<path d="M0 0 C4.89445607 3.82006327 9.27437957 8.00678682 13 13 C13 13.66 13 14.32 13 15 C8.96472554 13.4451236 6.92491445 10.82178919 4.25 7.5 C3.45078125 6.5203125 2.6515625 5.540625 1.828125 4.53125 C0 2 0 2 0 0 Z " fill="#070C08" transform="translate(259,53)"/>
<path d="M0 0 C0.99 0 1.98 0 3 0 C2.8125 1.8125 2.8125 1.8125 2 4 C-0.5625 5.75 -0.5625 5.75 -3 7 C-3 6.34 -3 5.68 -3 5 C-4.65 5 -6.3 5 -8 5 C-5.80084649 2.47097346 -4.26422245 1.65284449 -1 1 C-0.67 0.67 -0.34 0.34 0 0 Z " fill="#D3D4D6" transform="translate(82,41)"/>
<path d="M0 0 C3.16605307 2.11070205 4.19587357 3.73539027 6 7 C3.25 7.3125 3.25 7.3125 0 7 C-2.375 4.5 -2.375 4.5 -4 2 C-2.68 1.34 -1.36 0.68 0 0 Z M0 3 C1 5 1 5 1 5 Z " fill="#BDBEC0" transform="translate(210,248)"/>
<path d="M0 0 C0.66 0 1.32 0 2 0 C2 2.64 2 5.28 2 8 C0.35 8.33 -1.3 8.66 -3 9 C-2.25 2.25 -2.25 2.25 0 0 Z " fill="#C8C7CA" transform="translate(23,126)"/>
<path d="M0 0 C2.14380007 2.60984357 3.58936544 4.61226489 4 8 C3.5625 10.75 3.5625 10.75 3 13 C2.34 13 1.68 13 1 13 C1.33 11.35 1.66 9.7 2 8 C1.34 8 0.68 8 0 8 C-0.66 7.34 -1.32 6.68 -2 6 C-1.44444444 1.44444444 -1.44444444 1.44444444 0 0 Z " fill="#CECED0" transform="translate(266,104)"/>
<path d="M0 0 C0.33 1.32 0.66 2.64 1 4 C-0.65 5.32 -2.3 6.64 -4 8 C-5.32 7.34 -6.64 6.68 -8 6 C-7.0479279 4.99403703 -6.08812654 3.99538437 -5.125 3 C-4.59132813 2.443125 -4.05765625 1.88625 -3.5078125 1.3125 C-2 0 -2 0 0 0 Z " fill="#DDDEE2" transform="translate(69,52)"/>
<path d="M0 0 C3.59309034 1.19769678 4.42093253 2.4676789 6.6875 5.4375 C7.31011719 6.24058594 7.93273437 7.04367188 8.57421875 7.87109375 C10 10 10 10 10 12 C9.34 12 8.68 12 8 12 C6.72403785 10.52773598 5.45311712 9.04963873 4.2421875 7.5234375 C2.97895059 5.9033589 2.97895059 5.9033589 1.1875 4.3125 C0 3 0 3 0 0 Z " fill="#434345" transform="translate(69,240)"/>
<path d="M0 0 C0.33 0.66 0.66 1.32 1 2 C1.99 1.67 2.98 1.34 4 1 C5.2077558 4.62326739 4.54311128 5.64146369 3 9 C-0.875 7.25 -0.875 7.25 -2 5 C-1.0625 2.375 -1.0625 2.375 0 0 Z " fill="#C0C0C2" transform="translate(286,214)"/>
<path d="M0 0 C4.97093824 0.41153737 9.44508386 0.79600832 14 3 C14 3.33 14 3.66 14 4 C8.80790596 4.21192221 4.873261 3.5912689 0 2 C0 1.34 0 0.68 0 0 Z " fill="#070C08" transform="translate(183,16)"/>
<path d="M0 0 C2.625 0.9375 2.625 0.9375 5 2 C3.06745228 4.0245738 1.36841312 5.42105792 -1 7 C-1.99 7 -2.98 7 -4 7 C-3.33333333 5 -2.66666667 3 -2 1 C-1.34 0.67 -0.68 0.34 0 0 Z " fill="#38373B" transform="translate(230,273)"/>
<path d="M0 0 C4.52615993 3.67832017 8.39424999 7.41086363 12 12 C7.54834369 10.60090802 5.03393909 8.52592921 2 5 C0.6875 2.1875 0.6875 2.1875 0 0 Z " fill="#E3E4E6" transform="translate(81,225)"/>
<path d="M0 0 C2.31 0.33 4.62 0.66 7 1 C6.01 1.495 6.01 1.495 5 2 C5 2.66 5 3.32 5 4 C4.34 4 3.68 4 3 4 C3.7763932 7.0745356 3.7763932 7.0745356 6 9 C5.67 9.66 5.34 10.32 5 11 C4.34 11 3.68 11 3 11 C2.49833923 9.35467212 1.99871553 7.70872301 1.5 6.0625 C1.08234375 4.68771484 1.08234375 4.68771484 0.65625 3.28515625 C0 1 0 1 0 0 Z " fill="#CACBCD" transform="translate(216,200)"/>
<path d="M0 0 C2.97 0 5.94 0 9 0 C8.360625 0.45375 7.72125 0.9075 7.0625 1.375 C4.90297594 2.83921726 4.90297594 2.83921726 4 5 C2.35 5 0.7 5 -1 5 C-0.67 3.35 -0.34 1.7 0 0 Z " fill="#AAACAF" transform="translate(140,297)"/>
<path d="M0 0 C3 1.375 3 1.375 4.375 4 C4.58125 4.78375 4.7875 5.5675 5 6.375 C1.00499382 5.0052836 -1.80009492 3.11777578 -5 0.375 C-3 -0.625 -3 -0.625 0 0 Z M3 0.375 C5 1.375 5 1.375 5 1.375 Z " fill="#8E918F" transform="translate(86,278.625)"/>
<path d="M0 0 C0.99 0 1.98 0 3 0 C5.125 4.625 5.125 4.625 4 8 C0.21284635 5.55667506 0.21284635 5.55667506 -0.8125 2.875 C-0.874375 2.25625 -0.93625 1.6375 -1 1 C-0.67 0.67 -0.34 0.34 0 0 Z " fill="#A0A0A3" transform="translate(34,221)"/>
<path d="M0 0 C3.16717283 1.58358642 4.73268318 2.45263699 6.3125 5.6875 C6.539375 6.450625 6.76625 7.21375 7 8 C5.35 8.66 3.7 9.32 2 10 C2.061875 9.236875 2.12375 8.47375 2.1875 7.6875 C2.25898085 4.95474688 2.25898085 4.95474688 0.5 3.1875 C0.005 2.795625 -0.49 2.40375 -1 2 C-0.67 1.34 -0.34 0.68 0 0 Z " fill="#D3D4D6" transform="translate(257,92)"/>
<path d="M0 0 C0 0.66 0 1.32 0 2 C-4.29 3.65 -8.58 5.3 -13 7 C-13.33 6.34 -13.66 5.68 -14 5 C-12.23244474 4.15973604 -10.46082737 3.32801278 -8.6875 2.5 C-7.70136719 2.0359375 -6.71523437 1.571875 -5.69921875 1.09375 C-3 0 -3 0 0 0 Z " fill="#060D07" transform="translate(110,24)"/>
<path d="M0 0 C0 0.33 0 0.66 0 1 C-4.35590568 2.62849969 -8.23934612 3.34118446 -12.875 3.625 C-14.02742187 3.69976562 -15.17984375 3.77453125 -16.3671875 3.8515625 C-17.23601562 3.90054687 -18.10484375 3.94953125 -19 4 C-13.29748376 0.19832251 -6.72147407 -0.28602017 0 0 Z " fill="#181C19" transform="translate(187,301)"/>
<path d="M0 0 C1.98 0.99 3.96 1.98 6 3 C4.515 5.475 4.515 5.475 3 8 C2.01 7.67 1.02 7.34 0 7 C-1.17755913 4.05610218 -1.03348696 3.10046087 0 0 Z " fill="#39393C" transform="translate(257,248)"/>
<path d="M0 0 C1.12647116 3.37941348 0.80736269 4.60907672 0 8 C-0.185625 8.928125 -0.37125 9.85625 -0.5625 10.8125 C-0.706875 11.534375 -0.85125 12.25625 -1 13 C-1.66 13 -2.32 13 -3 13 C-3.66 14.32 -4.32 15.64 -5 17 C-3.96232949 10.93267948 -2.66038099 5.5626148 0 0 Z " fill="#7B7D7F" transform="translate(30,114)"/>
<path d="M0 0 C5.77378925 0.4811491 9.95859836 2.18467181 15 5 C15 5.33 15 5.66 15 6 C10.6822542 5.49202991 6.96697886 4.80317221 3 3 C3 2.34 3 1.68 3 1 C2.01 0.67 1.02 0.34 0 0 Z " fill="#081009" transform="translate(210,24)"/>
<path d="M0 0 C4.37859255 0.50522222 6.81651224 3.17827222 10 6 C8.25 6.6875 8.25 6.6875 6 7 C3.75 5.6875 3.75 5.6875 2 4 C2 3.34 2 2.68 2 2 C1.34 2 0.68 2 0 2 C0 1.34 0 0.68 0 0 Z " fill="#404143" transform="translate(80,252)"/>
<path d="M0 0 C1.65 0.33 3.3 0.66 5 1 C4.01 1.495 4.01 1.495 3 2 C3 3.65 3 5.3 3 7 C1.68 6.67 0.36 6.34 -1 6 C-0.67 4.02 -0.34 2.04 0 0 Z " fill="#E7E8EA" transform="translate(178,87)"/>
<path d="M0 0 C0.33 1.32 0.66 2.64 1 4 C0.01 3.67 -0.98 3.34 -2 3 C-1.34 2.01 -0.68 1.02 0 0 Z M-4 4 C-3.67 4.99 -3.34 5.98 -3 7 C-4.62339805 8.70884005 -6.29319053 10.37446717 -8 12 C-8.66 12 -9.32 12 -10 12 C-8.55746343 8.63408134 -6.66735273 6.48952921 -4 4 Z " fill="#F2F4F3" transform="translate(76,73)"/>
<path d="M0 0 C0.66 0.33 1.32 0.66 2 1 C1.38547486 6.53072626 1.38547486 6.53072626 -0.4375 8.75 C-1.2109375 9.36875 -1.2109375 9.36875 -2 10 C-2.66 10.66 -3.32 11.32 -4 12 C-3.5317879 7.22423661 -2.75668002 3.95523655 0 0 Z " fill="#E4E5E7" transform="translate(189,64)"/>
<path d="M0 0 C-0.99 0 -1.98 0 -3 0 C-3.33 0.66 -3.66 1.32 -4 2 C-5.6875 3.6875 -5.6875 3.6875 -8 5 C-11.25 4.6875 -11.25 4.6875 -14 4 C-4.81927711 -2.12048193 -4.81927711 -2.12048193 0 0 Z " fill="#AFB0B2" transform="translate(114,26)"/>
<path d="M0 0 C-1.22934015 3.68802044 -2.93859378 4.72356973 -6 7 C-6.66 6.34 -7.32 5.68 -8 5 C-8 3 -8 3 -6.8125 1.375 C-4.44439338 -0.42149467 -2.90102749 -0.23521845 0 0 Z " fill="#D2D3D5" transform="translate(112,249)"/>
<path d="M0 0 C2.09715785 3.14573677 2.52004559 5.01456251 3.125 8.6875 C3.29257812 9.68136719 3.46015625 10.67523438 3.6328125 11.69921875 C3.75398438 12.45847656 3.87515625 13.21773437 4 14 C3.01 13.67 2.02 13.34 1 13 C0.67 8.71 0.34 4.42 0 0 Z " fill="#090E09" transform="translate(299,120)"/>
<path d="M0 0 C0.33 0.66 0.66 1.32 1 2 C1.66 2.33 2.32 2.66 3 3 C1.68 4.32 0.36 5.64 -1 7 C-4 3.25 -4 3.25 -4 1 C-2.68 0.67 -1.36 0.34 0 0 Z " fill="#828284" transform="translate(142,67)"/>
<path d="M0 0 C3.465 1.98 3.465 1.98 7 4 C7 4.66 7 5.32 7 6 C7.66 6.33 8.32 6.66 9 7 C6.36 6.67 3.72 6.34 1 6 C0.67 4.02 0.34 2.04 0 0 Z " fill="#8A8B8C" transform="translate(239,40)"/>
<path d="M0 0 C1.32 0.66 2.64 1.32 4 2 C3.625 3.9375 3.625 3.9375 3 6 C2.01 6.495 2.01 6.495 1 7 C0.34 6.01 -0.32 5.02 -1 4 C-1.66 3.67 -2.32 3.34 -3 3 C-2.01 2.01 -1.02 1.02 0 0 Z " fill="#C9CCCD" transform="translate(264,250)"/>
<path d="M0 0 C2.64752004 2.57784846 4.94432065 4.91648098 7 8 C5.02 8.99 5.02 8.99 3 10 C3 8.35 3 6.7 3 5 C2.01 4.67 1.02 4.34 0 4 C0 2.68 0 1.36 0 0 Z " fill="#48484A" transform="translate(61,230)"/>
<path d="M0 0 C2.96052484 3.36423277 3.92289822 6.69159287 5 11 C3.125 10.4375 3.125 10.4375 1 9 C-0.3125 5.5 -0.3125 5.5 -1 2 C-0.67 1.34 -0.34 0.68 0 0 Z " fill="#1B211D" transform="translate(23,204)"/>
<path d="M0 0 C3.3 0.33 6.6 0.66 10 1 C10.33 1.99 10.66 2.98 11 4 C9.35232753 3.71890887 7.70686855 3.42481474 6.0625 3.125 C4.68771484 2.88136719 4.68771484 2.88136719 3.28515625 2.6328125 C2.53105469 2.42398437 1.77695313 2.21515625 1 2 C0.67 1.34 0.34 0.68 0 0 Z " fill="#090F0A" transform="translate(114,297)"/>
<path d="M0 0 C0.66666667 2 1.33333333 4 2 6 C0.625 7.5 0.625 7.5 -1 9 C-1.66 9 -2.32 9 -3 9 C-2.5020163 5.26512223 -2.12508244 3.18762365 0 0 Z " fill="#E5E7E6" transform="translate(138,178)"/>
<path d="M0 0 C1.5 1.375 1.5 1.375 3 3 C3 3.66 3 4.32 3 5 C3.66 5.33 4.32 5.66 5 6 C5.40729228 8.32156597 5.74438677 10.6568787 6 13 C2.67467889 10.30807339 1.47545057 6.93453485 0 3 C0 2.01 0 1.02 0 0 Z " fill="#EEEEF1" transform="translate(122,104)"/>
<path d="M0 0 C0.33 0.66 0.66 1.32 1 2 C0.00390625 4.1640625 0.00390625 4.1640625 -1.4375 6.625 C-1.91058594 7.44226563 -2.38367188 8.25953125 -2.87109375 9.1015625 C-3.24363281 9.72804688 -3.61617187 10.35453125 -4 11 C-4.33 11 -4.66 11 -5 11 C-4.50769231 4.6 -4.50769231 4.6 -1.9375 1.5625 C-0.9784375 0.7890625 -0.9784375 0.7890625 0 0 Z " fill="#29302A" transform="translate(34,90)"/>
<path d="M0 0 C2.631724 2.45627573 4.81527263 4.55352037 6 8 C5.625 10.25 5.625 10.25 5 12 C4.731875 11.030625 4.46375 10.06125 4.1875 9.0625 C3.795625 8.051875 3.40375 7.04125 3 6 C2.01 5.67 1.02 5.34 0 5 C0 3.35 0 1.7 0 0 Z " fill="#474748" transform="translate(278,90)"/>
<path d="M0 0 C-1.65 1.98 -3.3 3.96 -5 6 C-5.66 5.67 -6.32 5.34 -7 5 C-7 4.34 -7 3.68 -7 3 C-6.34 3 -5.68 3 -5 3 C-5.33 2.01 -5.66 1.02 -6 0 C-3 -1 -3 -1 0 0 Z " fill="#C1C1C3" transform="translate(249,241)"/>
<path d="M0 0 C3.08117952 3.49200345 4.88889538 6.454572 6 11 C5.67 11.66 5.34 12.32 5 13 C1.42988974 9.267612 0.89086558 4.9050011 0 0 Z " fill="#E8E9EA" transform="translate(80,169)"/>
<path d="M0 0 C2.35953094 2.35953094 2.49141413 3.77895617 3 7 C1.02 7.99 1.02 7.99 -1 9 C-1.09765625 2.84765625 -1.09765625 2.84765625 -1 1 C-0.67 0.67 -0.34 0.34 0 0 Z " fill="#79797B" transform="translate(67,141)"/>
<path d="M0 0 C0.33 0 0.66 0 1 0 C0.67 3.96 0.34 7.92 0 12 C-1.99795425 8.00409149 -2.3757916 6.32160334 -2 2 C-1.34 1.34 -0.68 0.68 0 0 Z " fill="#1A1C1A" transform="translate(18,133)"/>
<path d="M0 0 C0.66 0 1.32 0 2 0 C2 2.31 2 4.62 2 7 C0.02 7.99 0.02 7.99 -2 9 C-1.51421457 5.87709365 -1.0013988 3.00419641 0 0 Z " fill="#E7E9E9" transform="translate(166,113)"/>
<path d="M0 0 C1.32 0 2.64 0 4 0 C4.66 1.65 5.32 3.3 6 5 C3.69 4.67 1.38 4.34 -1 4 C-0.67 2.68 -0.34 1.36 0 0 Z " fill="#A8A7AC" transform="translate(210,27)"/>
<path d="M0 0 C-1.88178097 2.4044979 -2.99224715 2.99790027 -6 3.8125 C-9 4 -9 4 -12 2 C-10.37787941 1.47026689 -8.75218416 0.95146893 -7.125 0.4375 C-6.22007812 0.14746094 -5.31515625 -0.14257812 -4.3828125 -0.44140625 C-2 -1 -2 -1 0 0 Z " fill="#272B26" transform="translate(207,296)"/>
<path d="M0 0 C1.32 0 2.64 0 4 0 C3.67 1.65 3.34 3.3 3 5 C1.35 4.67 -0.3 4.34 -2 4 C-1.34 2.68 -0.68 1.36 0 0 Z " fill="#39393B" transform="translate(203,272)"/>
<path d="M0 0 C1 2 1 2 0.25 5.5 C-1 9 -1 9 -4 11 C-3.48964169 6.6109185 -2.47785723 3.66291938 0 0 Z " fill="#E4E5E7" transform="translate(131,194)"/>
<path d="M0 0 C1.32 0.33 2.64 0.66 4 1 C4 1.99 4 2.98 4 4 C4.66 4.33 5.32 4.66 6 5 C5.34 5 4.68 5 4 5 C4.33 6.32 4.66 7.64 5 9 C1.9083091 6.47043472 1.09068668 3.77545388 0 0 Z " fill="#A3A1A6" transform="translate(280,90)"/>
<path d="M0 0 C-1.28716647 1.00578589 -2.57988658 2.00446798 -3.875 3 C-4.95394531 3.8353125 -4.95394531 3.8353125 -6.0546875 4.6875 C-8 6 -8 6 -10 6 C-10 5.01 -10 4.02 -10 3 C-3.375 -1.125 -3.375 -1.125 0 0 Z " fill="#EEEFF1" transform="translate(104,55)"/>
<path d="M0 0 C1.32 0.66 2.64 1.32 4 2 C3.67 2.66 3.34 3.32 3 4 C3.33 4.99 3.66 5.98 4 7 C2.02 6.34 0.04 5.68 -2 5 C-1.34 4.67 -0.68 4.34 0 4 C-0.33 3.01 -0.66 2.02 -1 1 C-0.67 0.67 -0.34 0.34 0 0 Z " fill="#959597" transform="translate(226,33)"/>
<path d="M0 0 C2.97 0.495 2.97 0.495 6 1 C6 1.99 6 2.98 6 4 C4.02 4.66 2.04 5.32 0 6 C-0.33 5.34 -0.66 4.68 -1 4 C-0.34 3.34 0.32 2.68 1 2 C0.67 1.34 0.34 0.68 0 0 Z " fill="#BDBDBF" transform="translate(209,264)"/>
<path d="M0 0 C0.99 0 1.98 0 3 0 C3.33 0.99 3.66 1.98 4 3 C0.25 6 0.25 6 -2 6 C-1.125 1.125 -1.125 1.125 0 0 Z " fill="#BFBFC2" transform="translate(224,257)"/>
<path d="M0 0 C4.10958767 1.45044271 7.43258745 3.51110752 11 6 C9.375 6.75 9.375 6.75 7 7 C1.288 3.864 1.288 3.864 0 0 Z " fill="#091109" transform="translate(237,37)"/>
<path d="M0 0 C-3.35327639 2.23551759 -3.90743657 2.17283528 -7.6875 1.625 C-8.49574219 1.51414062 -9.30398437 1.40328125 -10.13671875 1.2890625 C-10.75160156 1.19367188 -11.36648437 1.09828125 -12 1 C-12 0.67 -12 0.34 -12 0 C-7.66726186 -0.92844389 -4.33273814 -0.92844389 0 0 Z " fill="#C5C6C8" transform="translate(187,260)"/>
<path d="M0 0 C0.66 0.33 1.32 0.66 2 1 C0.92598892 3.91517292 0.22189824 5.77810176 -2 8 C-2.99 7.01 -3.98 6.02 -5 5 C-4.01 4.67 -3.02 4.34 -2 4 C-0.79117904 1.99983534 -0.79117904 1.99983534 0 0 Z " fill="#B4B5B7" transform="translate(255,228)"/>
<path d="M0 0 C0.66 0 1.32 0 2 0 C0.7508258 3.45925163 -0.67527795 6.14693203 -3 9 C-3.66 8.34 -4.32 7.68 -5 7 C-4.34 7 -3.68 7 -3 7 C-2.690625 6.030625 -2.38125 5.06125 -2.0625 4.0625 C-1 1 -1 1 0 0 Z " fill="#C6C7CA" transform="translate(264,216)"/>
<path d="M0 0 C0.66 0 1.32 0 2 0 C2.66 2.97 3.32 5.94 4 9 C3.34 9 2.68 9 2 9 C0.50178941 5.62902617 0 3.79557881 0 0 Z " fill="#D7D7D8" transform="translate(61,188)"/>
<path d="M0 0 C0.6875 1.625 0.6875 1.625 1 4 C-0.4375 7.25 -0.4375 7.25 -2 10 C-2.99 9.67 -3.98 9.34 -5 9 C-4.54625 8.2575 -4.0925 7.515 -3.625 6.75 C-2.31359204 4.53069422 -1.11719197 2.32032178 0 0 Z " fill="#E7E7E8" transform="translate(178,146)"/>
<path d="M0 0 C0.66 0 1.32 0 2 0 C3.76462683 3.08809695 4 4.23312136 4 8 C3.01 8 2.02 8 1 8 C0.67 5.36 0.34 2.72 0 0 Z " fill="#E4E4E6" transform="translate(154,118)"/>
<path d="M0 0 C2.475 0.99 2.475 0.99 5 2 C4 4 4 4 0.9375 5.125 C-0.031875 5.41375 -1.00125 5.7025 -2 6 C-1.34 4.02 -0.68 2.04 0 0 Z " fill="#4D4D4E" transform="translate(212,73)"/>
<path d="M0 0 C0.33 0.66 0.66 1.32 1 2 C1.66 2 2.32 2 3 2 C3 2.99 3 3.98 3 5 C0.625 4.6875 0.625 4.6875 -2 4 C-2.66 3.01 -3.32 2.02 -4 1 C-2.68 0.67 -1.36 0.34 0 0 Z " fill="#9A9A9F" transform="translate(244,45)"/>
<path d="M0 0 C1.65 0.33 3.3 0.66 5 1 C5 1.66 5 2.32 5 3 C2.69 3.33 0.38 3.66 -2 4 C-1.34 3.67 -0.68 3.34 0 3 C0 2.01 0 1.02 0 0 Z " fill="#3B3B3D" transform="translate(101,267)"/>
<path d="M0 0 C2.97 0.495 2.97 0.495 6 1 C5.67 1.99 5.34 2.98 5 4 C3.35 4.33 1.7 4.66 0 5 C-0.33 4.01 -0.66 3.02 -1 2 C-0.67 1.34 -0.34 0.68 0 0 Z " fill="#D3D4D6" transform="translate(216,164)"/>
<path d="M0 0 C0.66 0 1.32 0 2 0 C1.01 2.97 0.02 5.94 -1 9 C-1.66 8.67 -2.32 8.34 -3 8 C-1.125 1.125 -1.125 1.125 0 0 Z " fill="#CECED0" transform="translate(243,154)"/>
<path d="M0 0 C1 3 1 3 0.22265625 5.04296875 C-0.16019531 5.75066406 -0.54304687 6.45835938 -0.9375 7.1875 C-1.31777344 7.90292969 -1.69804687 8.61835937 -2.08984375 9.35546875 C-2.54037109 10.16951172 -2.54037109 10.16951172 -3 11 C-3.83583327 8.62392051 -4.1842383 7.45550373 -3.22265625 5.078125 C-1.61132812 2.5390625 -1.61132812 2.5390625 0 0 Z " fill="#E9E9E9" transform="translate(206,83)"/>
<path d="M0 0 C3.82946843 1.45255699 5.12050295 3.42895561 7 7 C4.08482708 5.92598892 2.22189824 5.22189824 0 3 C0 2.01 0 1.02 0 0 Z " fill="#D6D7D9" transform="translate(248,79)"/>
<path d="M0 0 C0.99 0.99 1.98 1.98 3 3 C-0.625 6 -0.625 6 -4 6 C-4 4 -4 4 -2 1.875 C-1.34 1.25625 -0.68 0.6375 0 0 Z " fill="#9FA0A2" transform="translate(61,65)"/>
<path d="M0 0 C3.00765886 2.84936103 5.27845212 5.23511958 7 9 C5.82460004 8.07347299 4.65989423 7.13336613 3.5 6.1875 C2.52546875 5.40439453 2.52546875 5.40439453 1.53125 4.60546875 C0 3 0 3 0 0 Z " fill="#222823" transform="translate(255,50)"/>
<path d="M0 0 C1.62463842 -0.05395478 3.24978541 -0.09277195 4.875 -0.125 C5.77992188 -0.14820313 6.68484375 -0.17140625 7.6171875 -0.1953125 C10 0 10 0 12 2 C7.31034294 3.11658501 4.46236469 2.80619523 0 1 C0 0.67 0 0.34 0 0 Z " fill="#E9EAEC" transform="translate(177,42)"/>
<path d="M0 0 C0.33 1.98 0.66 3.96 1 6 C-0.9375 5.1875 -0.9375 5.1875 -3 4 C-3.33 3.01 -3.66 2.02 -4 1 C-2 0 -2 0 0 0 Z " fill="#484A4C" transform="translate(63,252)"/>
<path d="M0 0 C0.66 0.33 1.32 0.66 2 1 C2 1.99 2 2.98 2 4 C1.34 4 0.68 4 0 4 C0 4.66 0 5.32 0 6 C-0.99 6.33 -1.98 6.66 -3 7 C-2.38722388 4.03824877 -1.74627478 2.61941217 0 0 Z " fill="#3C3C3E" transform="translate(266,217)"/>
<path d="M0 0 C2 4 2 4 1.3125 6.1875 C0 8 0 8 -3 9 C-2.01 6.03 -1.02 3.06 0 0 Z " fill="#222B25" transform="translate(293,211)"/>
<path d="M0 0 C0.66 0.99 1.32 1.98 2 3 C1.1875 4.9375 1.1875 4.9375 0 7 C-0.99 7.33 -1.98 7.66 -3 8 C-1.125 2.25 -1.125 2.25 0 0 Z " fill="#4D4D4F" transform="translate(155,202)"/>
<path d="M0 0 C0.99 1.32 1.98 2.64 3 4 C0.92446352 4.5534764 -0.84365964 5 -3 5 C-3 4.01 -3 3.02 -3 2 C-2.01 1.34 -1.02 0.68 0 0 Z " fill="#606062" transform="translate(144,158)"/>
<path d="M0 0 C1.8125 0.1875 1.8125 0.1875 4 1 C5.75 3.5625 5.75 3.5625 7 6 C6.01 6 5.02 6 4 6 C1.8125 3 1.8125 3 0 0 Z " fill="#161D18" transform="translate(270,68)"/>
<path d="M0 0 C2.25 0.25 2.25 0.25 4 1 C2.7934375 1.6496875 2.7934375 1.6496875 1.5625 2.3125 C-1.27846354 3.80474002 -1.27846354 3.80474002 -2 7 C-2.66 6.01 -3.32 5.02 -4 4 C-2.25 1.9375 -2.25 1.9375 0 0 Z " fill="#F4F6F5" transform="translate(81,68)"/>
<path d="M0 0 C3.91402949 1.26941497 5.79072873 2.51167694 8 6 C5.21788056 5.62403791 3.4120716 5.32681541 1.1875 3.5625 C0 2 0 2 0 0 Z " fill="#E2E3E5" transform="translate(229,62)"/>
<path d="M0 0 C0.598125 0.20625 1.19625 0.4125 1.8125 0.625 C1.4825 1.285 1.1525 1.945 0.8125 2.625 C0.1525 2.625 -0.5075 2.625 -1.1875 2.625 C-1.1875 3.285 -1.1875 3.945 -1.1875 4.625 C-1.8475 4.625 -2.5075 4.625 -3.1875 4.625 C-3.1875 3.965 -3.1875 3.305 -3.1875 2.625 C-3.8475 2.295 -4.5075 1.965 -5.1875 1.625 C-2.1875 -0.375 -2.1875 -0.375 0 0 Z " fill="#D0D2D7" transform="translate(208.1875,290.375)"/>
<path d="M0 0 C0.66 0 1.32 0 2 0 C2.33 1.32 2.66 2.64 3 4 C1.35 4.66 -0.3 5.32 -2 6 C-1.34 4.02 -0.68 2.04 0 0 Z " fill="#4E4E50" transform="translate(159,193)"/>
<path d="M0 0 C0.33 0 0.66 0 1 0 C1.33 3.63 1.66 7.26 2 11 C1.67 10.34 1.34 9.68 1 9 C0.34 9 -0.32 9 -1 9 C-0.67 6.03 -0.34 3.06 0 0 Z " fill="#262D28" transform="translate(18,180)"/>
<path d="M0 0 C2.35953094 2.35953094 2.49141413 3.77895617 3 7 C0.5 5.625 0.5 5.625 -2 4 C-2 3.34 -2 2.68 -2 2 C-1.34 2 -0.68 2 0 2 C0 1.34 0 0.68 0 0 Z " fill="#6A6B6D" transform="translate(83,179)"/>
<path d="M0 0 C1.485 0.99 1.485 0.99 3 2 C3 3.32 3 4.64 3 6 C1.68 6 0.36 6 -1 6 C-0.67 4.02 -0.34 2.04 0 0 Z " fill="#4B4B4D" transform="translate(157,114)"/>
<path d="M0 0 C0 0.99 0 1.98 0 3 C-3.33333333 6 -3.33333333 6 -6 6 C-6 5.34 -6 4.68 -6 4 C-5.34 4 -4.68 4 -4 4 C-3.67 3.01 -3.34 2.02 -3 1 C-2.01 0.67 -1.02 0.34 0 0 Z " fill="#EBECEE" transform="translate(103,73)"/>
<path d="M0 0 C4.875 1.75 4.875 1.75 6 4 C3.69 4 1.38 4 -1 4 C-0.67 2.68 -0.34 1.36 0 0 Z " fill="#E9E9E9" transform="translate(211,70)"/>
<path d="M0 0 C2.875 0.6875 2.875 0.6875 6 2 C7.375 4.625 7.375 4.625 8 7 C6.66382648 6.02471263 5.3311249 5.04466681 4 4.0625 C3.2575 3.51722656 2.515 2.97195312 1.75 2.41015625 C1.1725 1.94480469 0.595 1.47945312 0 1 C0 0.67 0 0.34 0 0 Z " fill="#4B4C4E" transform="translate(229,60)"/>
<path d="M0 0 C-0.66 0 -1.32 0 -2 0 C-2.33 1.32 -2.66 2.64 -3 4 C-3.99 3.67 -4.98 3.34 -6 3 C-6 2.01 -6 1.02 -6 0 C-3.50907189 -1.24546405 -2.58919267 -0.7767578 0 0 Z " fill="#626264" transform="translate(137,62)"/>
</svg>
